<?xml version="1.0" encoding="UTF-8" standalone="no"?>
<!-- Created with Inkscape (http://www.inkscape.org/) -->

<svg
   width="217.96349mm"
   height="51.240768mm"
   viewBox="0 0 217.96349 51.240768"
   version="1.1"
   id="svg1453"
   inkscape:version="1.1.1 (3bf5ae0d25, 2021-09-20)"
   sodipodi:docname="fm_result.svg"
   xmlns:inkscape="http://www.inkscape.org/namespaces/inkscape"
   xmlns:sodipodi="http://sodipodi.sourceforge.net/DTD/sodipodi-0.dtd"
   xmlns="http://www.w3.org/2000/svg"
   xmlns:svg="http://www.w3.org/2000/svg">
  <sodipodi:namedview
     id="namedview1455"
     pagecolor="#ffffff"
     bordercolor="#666666"
     borderopacity="1.0"
     inkscape:pageshadow="2"
     inkscape:pageopacity="0.0"
     inkscape:pagecheckerboard="0"
     inkscape:document-units="mm"
     showgrid="false"
     fit-margin-top="0"
     fit-margin-left="0"
     fit-margin-right="0"
     fit-margin-bottom="0"
     inkscape:zoom="0.8659091"
     inkscape:cx="342.99212"
     inkscape:cy="70.446194"
     inkscape:window-width="1920"
     inkscape:window-height="1010"
     inkscape:window-x="-6"
     inkscape:window-y="-6"
     inkscape:window-maximized="1"
     inkscape:current-layer="layer1"
     showguides="false"
     inkscape:snap-global="false" />
  <defs
     id="defs1450">
    <clipPath
       id="chart0-0">
      <rect
         x="-6.5"
         y="-1.5"
         width="13"
         height="3"
         id="rect20597" />
    </clipPath>
    <clipPath
       id="chart0-0-3">
      <rect
         x="-6.5"
         y="-1.5"
         width="13"
         height="3"
         id="rect20597-6" />
    </clipPath>
    <clipPath
       id="chart0-0-7">
      <rect
         x="-6.5"
         y="-1.5"
         width="13"
         height="3"
         id="rect20597-65" />
    </clipPath>
    <clipPath
       id="chart0-0-3-6">
      <rect
         x="-6.5"
         y="-1.5"
         width="13"
         height="3"
         id="rect20597-6-9" />
    </clipPath>
  </defs>
  <g
     inkscape:label="Layer 1"
     inkscape:groupmode="layer"
     id="layer1"
     transform="translate(-1.0519721,-0.51527493)">
    <path
       style="fill:none;stroke:#ff9300;stroke-width:0.998601;stroke-linecap:butt;stroke-linejoin:miter;stroke-miterlimit:4;stroke-dasharray:none;stroke-opacity:1"
       d="m 1.6369392,25.716168 c 0,0 1.0721909,-16.848052 3.5097715,-16.848052 3.0546425,0 3.7450037,34.461926 6.0359843,34.461926 2.67281,0 3.436469,-34.0790151 6.491109,-33.6961053 2.290979,0 4.58196,34.4619233 6.872939,33.3131923 2.67281,0.382911 3.43647,-34.4619228 7.636599,-34.079013 4.20013,0.7658207 4.200129,34.844834 8.400259,34.079013 4.963789,0 4.581958,-34.4619228 10.309408,-34.079013 3.818299,0 8.400261,33.696103 11.836732,34.079013 4.200129,0 9.545749,-34.079012 13.364049,-33.6961021 3.43647,0 9.927608,33.3131941 12.600429,33.3131941 4.581996,0.38291 5.48198,-33.0411406 11.454981,-34.0016645 6.17122,1.0161721 6.49111,34.0016645 8.78209,34.0016645 3.43646,0 5.72743,-32.164464 8.78207,-32.9302843 4.20013,-0.3829098 4.58197,33.6961033 7.63662,33.3131923 2.29098,0.765821 3.81828,-33.6961021 6.4911,-33.6961021 3.05465,-0.3829099 4.20013,34.0790151 6.87293,34.0790151 2.67282,0 3.81831,-34.0790151 6.49113,-33.6961053 2.67281,-0.7658207 3.43646,33.6961033 6.49109,32.5473733 3.05465,1.53164 4.58197,-33.313193 6.87295,-32.9302831 2.67281,0 4.58196,34.4619231 6.87293,34.4619231 2.6728,0.38291 4.58196,-34.844833 6.87295,-34.4619231 2.6728,-0.3829099 4.96379,34.8448331 7.63659,34.4619231 3.43648,0 5.34563,-33.696103 9.16391,-34.0790133 4.20014,-0.7658207 7.63661,33.3131923 9.9276,33.3131923 3.8183,0 9.92757,-33.6961021 12.60039,-33.6961021 2.6728,0 6.87293,14.1676801 6.87293,14.1676801"
       id="path1233"
       sodipodi:nodetypes="ccccccccccccccccccccccccccc" />
    <path
       style="fill:none;stroke:#717171;stroke-width:0.865;stroke-linecap:butt;stroke-linejoin:miter;stroke-miterlimit:4;stroke-dasharray:0.865, 0.865;stroke-dashoffset:0;stroke-opacity:1"
       d="M 0.74641656,26.135659 H 218.91308"
       id="path3812" />
  </g>
</svg>
