<?xml version="1.0" encoding="UTF-8" standalone="no"?>
<!-- Created with Inkscape (http://www.inkscape.org/) -->

<svg
   version="1.0"
   width="760.10223"
   height="794.15302"
   id="svg2"
   sodipodi:docname="japan.svg"
   inkscape:version="1.1 (c4e8f9e, 2021-05-24)"
   xmlns:inkscape="http://www.inkscape.org/namespaces/inkscape"
   xmlns:sodipodi="http://sodipodi.sourceforge.net/DTD/sodipodi-0.dtd"
   xmlns="http://www.w3.org/2000/svg"
   xmlns:svg="http://www.w3.org/2000/svg">
  <sodipodi:namedview
     id="namedview223"
     pagecolor="#ffffff"
     bordercolor="#666666"
     borderopacity="1.0"
     inkscape:pageshadow="2"
     inkscape:pageopacity="0.0"
     inkscape:pagecheckerboard="0"
     showgrid="false"
     inkscape:zoom="0.94817999"
     inkscape:cx="379.67475"
     inkscape:cy="397.07651"
     inkscape:window-width="1535"
     inkscape:window-height="907"
     inkscape:window-x="0"
     inkscape:window-y="25"
     inkscape:window-maximized="0"
     inkscape:current-layer="svg2"
     inkscape:snap-global="false" />
  <defs
     id="defs4" />
  <g
     transform="matrix(1.385313,0,0,1.385313,315.7036,604.9534)"
     style="fill:#e0e0e0;fill-opacity:1;stroke:#000000;stroke-width:0.6;stroke-linejoin:bevel;stroke-miterlimit:4;stroke-dasharray:none;stroke-opacity:1"
     id="g2458">
    <path
       d="M 19.25,-10.75 14.15,-13 v 7 L 13,-4 H 10.4 L 6.65,-1 V 0.75 H 0.4 l -3.15,-2.6 v -2.4 l -1.6,-2.35 4.5,-5.4 v -5 h -2.9 l -1.5,1 h -3.5 l -11.1,1.25 1.85,1.5 v 2 h 1.5 L -18.1,-8 v 1.4 l 1.75,1.25 -1.65,1.85 h -1.25 v 3 l 7.65,5.9 2.85,1 v 1.25 h -1.6 l -0.15,1.1 H -9 v 2.9 l 8.25,3.85 H 1.9 V 17 H 4 l 4.65,-5.75 5.75,-12 4.25,-1.75 v -3 l -1.5,-1 2.1,-1.75 v -2.5"
       style="fill:#e0e0e0;fill-opacity:1;stroke:#000000;stroke-width:0.6;stroke-linecap:round;stroke-linejoin:bevel;stroke-miterlimit:4;stroke-dasharray:none;stroke-opacity:1"
       id="path2460" />
  </g>
  <g
     transform="matrix(1.385313,0,0,1.385313,73.9193,705.9867)"
     style="fill:#e0e0e0;fill-opacity:1;stroke:#000000;stroke-width:0.6;stroke-linejoin:bevel;stroke-miterlimit:4;stroke-dasharray:none;stroke-opacity:1"
     id="g3365">
    <path
       d="m 18.05,-14.15 v 6.4 h -1.5 L 11.3,-2.9 v 1 l 1.25,2.65 v 3.1 l -3.4,4.4 V 10 h 1.25 v 4.85 l 3.15,2.65 v 2 L 10.9,21 H 8.15 l -1.6,-3.15 -7.4,-1.5 -1.5,-3.6 -1.35,-2 1.6,-1.15 1.5,1.65 H 0.9 L 3.05,7.35 V 2 L -0.6,-1.25 V -3.9 l 1.25,-1 v -8.4 l 1.3,-1.6 h 2.6 l 2.25,-1.85 2.1,2.5 h 2.15 l 1.35,-1.5 h 2.25 l 3.4,1.6"
       style="fill:#e0e0e0;fill-opacity:1;stroke:#000000;stroke-width:0.6;stroke-linecap:round;stroke-linejoin:bevel;stroke-miterlimit:4;stroke-dasharray:none;stroke-opacity:1"
       id="path3367" />
    <path
       d="m 1.15,-21 v 6.1 l -0.9,0.75 -2.7,-1.1 v -2.25 l 2.6,-3.5 h 1 m -12.7,13.85 -0.75,1 1.35,2 h 2.75 l -1.75,-3 h -1.6 m -1.25,4.5 -2.75,4.4 -2.5,0.5 v -1.5 l 3.25,-3.4 h 2"
       style="fill:#e0e0e0;fill-opacity:1;stroke:#000000;stroke-width:0.6;stroke-linecap:round;stroke-linejoin:bevel;stroke-miterlimit:4;stroke-dasharray:none;stroke-opacity:1"
       id="path3369" />
  </g>
  <g
     transform="matrix(1.385313,0,0,1.385313,124.62179,688.3933)"
     style="fill:#e0e0e0;fill-opacity:1;stroke:#000000;stroke-width:0.6;stroke-linejoin:bevel;stroke-miterlimit:4;stroke-dasharray:none;stroke-opacity:1"
     id="g2700">
    <path
       d="m 2.85,-25.45 h 2.5 v -1 H 8.2 v 3.4 h 5.65 v -2 h 4.75 v 3.5 l -4.65,4.1 h -1.6 v 3 h 1 v 2.25 H 11.8 L 3.3,7.7 v 4.6 h 1 l -1.25,5.65 c -2.2,2.5 -3.8,5.583333 -4.8,9.25 l -0.05,0.1 -3.15,-1.25 -1.35,-2.35 1.75,-4.4 -4.75,-2 -1.9,-5 h -1.5 l -1.85,-1.1 v -2 h 1.25 V 6.8 l -5.25,-5.05 v -3.2 h 7.75 l 2,-1.6 h 2 V -5.3 l -1.25,-1.4 1.85,-1.75 v -1.85 l -2.5,-1.4 v -4.25 l 1.5,-1.6 h 1.25 l 7.3,-9.75 1.5,1.85"
       style="fill:#e0e0e0;fill-opacity:1;stroke:#000000;stroke-width:0.6;stroke-linecap:round;stroke-linejoin:bevel;stroke-miterlimit:4;stroke-dasharray:none;stroke-opacity:1"
       id="path2702" />
  </g>
  <g
     transform="matrix(1.385313,0,0,1.385313,96.25682,659.2552)"
     style="fill:#e0e0e0;fill-opacity:1;stroke:#000000;stroke-width:0.6;stroke-linejoin:bevel;stroke-miterlimit:4;stroke-dasharray:none;stroke-opacity:1"
     id="g3590">
    <path
       d="m 14.15,-19.6 5.25,5.4 2.4,8 -7.3,9.75 h -1.25 l -1.5,1.6 V 9.4 l 2.5,1.4 v 1.85 l -1.85,1.75 1.25,1.4 v 2.25 h -2 l -2,1.6 H 1.9 l -3.4,-1.6 h -2.25 l -1.35,1.5 h -2.15 l -2.1,-2.5 V 14.8 L -6,12.55 V 10.8 l 2.9,-3.25 v -3 l 3,-2.4 V 0.9 h -4.75 v -1.25 l 4.1,-2.5 V -6.1 l -2.1,-1.25 v -1.6 l -2.9,-2.5 3.4,-1.4 3.1,-4.6 h 2.9 l 5.25,2.85 h 4 v -3.75 l 1.25,-1.25"
       style="fill:#e0e0e0;fill-opacity:1;stroke:#000000;stroke-width:0.6;stroke-linecap:round;stroke-linejoin:bevel;stroke-miterlimit:4;stroke-dasharray:none;stroke-opacity:1"
       id="path3592" />
    <path
       d="M -7,4.15 V 1.65 L -9,3.8 h -1.5 L -13,5.75 V 8.3 l 1.4,0.75 h 3.1 L -6,5.4 -7,4.15 m -7.1,6.65 0.35,-8 h -3.75 l -3.85,5 v 2.25 l 2.35,1.6 h -2.75 v 2.4 l 1.5,2.1 4.25,-5.35 h 1.9"
       style="fill:#e0e0e0;fill-opacity:1;stroke:#000000;stroke-width:0.6;stroke-linecap:round;stroke-linejoin:bevel;stroke-miterlimit:4;stroke-dasharray:none;stroke-opacity:1"
       id="path3594" />
  </g>
  <g
     transform="matrix(1.385313,0,0,1.385313,97.42324,737.1667)"
     style="fill:#e0e0e0;fill-opacity:1;stroke:#000000;stroke-width:0.6;stroke-linejoin:bevel;stroke-miterlimit:4;stroke-dasharray:none;stroke-opacity:1"
     id="g6851">
    <path
       d="m 1,-33.4 5.25,5.05 v 2.4 H 5 v 2 l 1.85,1.1 h 1.5 l 1.9,5 4.75,2 -1.75,4.4 h -3 l -1.65,2.5 v 1.5 H 10 l 1.5,3 V -3.2 H 6.75 v 1.75 l -6.25,4 h -2.4 l -1.1,1.6 -1.5,-2.1 3.75,-4 V -3.6 h 1 v -6.25 l -1,-0.25 -0.75,-1.25 V -14.7 H -4 v -2.9 h 2 l 1.25,2.15 h 1.5 L 2.1,-18.6 v -1.35 L -0.75,-21.7 H -4.5 l -1.25,-2.65 v -1 L -0.5,-30.2 H 1 v -3.2"
       style="fill:#e0e0e0;fill-opacity:1;stroke:#000000;stroke-width:0.6;stroke-linecap:round;stroke-linejoin:bevel;stroke-miterlimit:4;stroke-dasharray:none;stroke-opacity:1"
       id="path6853" />
    <path
       d="m 3.5,17.4 2.5,-3 v -2 h 2.4 v 4.65 l -4,7.5 v 4.1 L 3,29.8 0.65,30.05 v -2 l -1,-1.15 V 25.8 L 3.5,21.9 V 17.4 M -6.1,28.15 -8.6,25.8 h -2.5 l -3.9,2.1 v 2.75 l 2,2.65 4.4,0.1 2.5,-2.75 v -2.5"
       style="fill:#e0e0e0;fill-opacity:1;stroke:#000000;stroke-width:0.6;stroke-linecap:round;stroke-linejoin:bevel;stroke-miterlimit:4;stroke-dasharray:none;stroke-opacity:1"
       id="path6855" />
  </g>
  <g
     transform="matrix(1.385313,0,0,1.385313,96.46182,632.1045)"
     style="fill:#e0e0e0;fill-opacity:1;stroke:#000000;stroke-width:0.57;stroke-linejoin:bevel;stroke-miterlimit:4;stroke-dasharray:none;stroke-opacity:1"
     id="g7742">
    <path
       d="m 2.2,-8 6.5,4.25 V 5.1 L 3.45,2.25 H 0.55000001 L -2.55,6.85 -5.95,8.25 V 3.5 L -8.45,0.19999999 C -5.45,-2.2333333 -2.5333333,-4.9666667 0.30000001,-8 H 2.2"
       style="fill:#e0e0e0;fill-opacity:1;stroke:#000000;stroke-width:0.6;stroke-linecap:round;stroke-linejoin:bevel;stroke-miterlimit:4;stroke-dasharray:none;stroke-opacity:1"
       id="path7744" />
  </g>
  <g
     transform="matrix(1.385313,0,0,1.385313,458.5868,470.57)"
     style="fill:#e0e0e0;fill-opacity:1;stroke:#000000;stroke-width:0.6;stroke-linejoin:bevel;stroke-miterlimit:4;stroke-dasharray:none;stroke-opacity:1"
     id="g1667">
    <path
       d="m 6.25,-15.95 3.15,1 v 3.15 l 1.6,1 -1.5,1.1 v 6.15 l 2.9,1 v 1.5 L 10,3.55 V 6.2 l 2.5,2.5 h 4.25 l 2.65,1.75 -2.4,1 H 13.5 L 3.5,8.4 0.4,11.45 v 2.6 h -2.25 l -4,3.15 H -8 l -1.15,3 -2.5,-1.9 v -2 l -1,-1 V 9.55 l 1.4,-1 V 6.7 L -12.9,4.2 h -4.6 l -1.9,-2.25 v -2.5 l 1.4,-2 2.75,-2.25 v -1.65 h 2.6 l 2.15,-1.25 v -1.35 h 4.25 l 1.5,-2.9 h 2.25 v -5.25 l 4.35,-3 3.15,4.25 h 1.25"
       style="fill:#e0e0e0;fill-opacity:1;stroke:#000000;stroke-width:0.6;stroke-linecap:round;stroke-linejoin:bevel;stroke-miterlimit:4;stroke-dasharray:none;stroke-opacity:1"
       id="path1669" />
  </g>
  <g
     transform="matrix(1.385313,0,0,1.385313,70.028,635.2235)"
     style="fill:#e0e0e0;fill-opacity:1;stroke:#000000;stroke-width:0.6;stroke-linejoin:bevel;stroke-miterlimit:4;stroke-dasharray:none;stroke-opacity:1"
     id="g1627">
    <path
       d="m -25.9,-8.65 -2.25,-0.25 v -1.6 h 2.25 v 1.85 m -2.65,1.15 v 1.6 l -1.75,-1.6 h 1.75"
       style="fill:#e0e0e0;fill-opacity:1;stroke:#000000;stroke-width:0.6;stroke-linecap:round;stroke-linejoin:bevel;stroke-miterlimit:4;stroke-dasharray:none;stroke-opacity:1"
       id="path1629" />
    <path
       d="m -30.05,-1 v 2.75 h -2 l 1,2 v 2.5 l 1,2 1.4,-2.4 V 2.5 h 2.35 V 0 l -2.1,1.5 v -2.65 h 1.25 v -4.1 l -1.5,2.75 -1.4,1.5"
       style="fill:#e0e0e0;fill-opacity:1;stroke:#000000;stroke-width:0.6;stroke-linecap:round;stroke-linejoin:bevel;stroke-miterlimit:4;stroke-dasharray:none;stroke-opacity:1"
       id="path1631" />
    <path
       d="m -34.9,4.6 v 1.9 l -2.15,-1.15 v 1.9 L -35.4,9 -33.8,6.85 V 4.6 h -1.1 m -7,4.25 -1.9,-1.75 v 3.4 l 1.15,1.5 -1.75,2 h 2.85 l 1.15,1.5 V 13 h 2.25 v 1.25 h 2.25 V 12.5 l -1.75,-1.75 v -2 l -1.4,-1.4 -1,1.5 h -1.85"
       style="fill:#e0e0e0;fill-opacity:1;stroke:#000000;stroke-width:0.6;stroke-linecap:round;stroke-linejoin:bevel;stroke-miterlimit:4;stroke-dasharray:none;stroke-opacity:1"
       id="path1633" />
    <path
       d=""
       style="fill:#e0e0e0;fill-opacity:1;stroke:#000000;stroke-width:0.6;stroke-linejoin:bevel;stroke-miterlimit:4;stroke-dasharray:none;stroke-opacity:1"
       id="path1635" />
    <path
       d="m 5.6,-16.75 -3,1.35 v 1.5 H 0.7 v -2 l -2.1,-2.15 h -1.9 l -1.6,3.15 h -2.25 v 1.75 h 2.6 v 2.75 h -2.5 l -1.35,-1.5 h -2.65 l -1.6,-1 -1,-1.15 v 1.9 h -2.4 l -3.6,6.5 h 2.35 l 2.65,-2.4 v -1.5 l 2.5,-1.5 v 3 l -1.5,1.75 4.1,2.75 h 2.15 v 2.75 l 0.05,0.05 4.45,1.6 1,1.1 v 4 l 1.35,1.4 V 9.2 h -2.1 V 7.6 H -6.4 V 2.1 H -7.8 V 0.45 h -2.5 v 1.4 l -1.75,1.35 1.25,1.5 v 3.25 l 1.25,1.4 h 1.9 l 1.6,3 -2.75,5.25 h 2 l 4.75,-5.65 h 4.5 v -1 h 3 V 13.7 L 2.7,15.6 v 1.1 l 2.15,1.4 h 2.1 V 16.85 H 8.7 l 2.9,-3 v -2.4 L 9.35,8.2 H 6.6 l -1.25,1 H 3.7 L 2.7,7.95 5.35,6.2 h 1.1 V 4.6 L 4.6,1.1 v -2.5 l 2.25,-1.15 1.35,-1.85 2.5,2.2 c 3,-2.4333333 5.916667,-5.1666667 8.75,-8.2 H 13.7 l -8.1,-4.25 v -2.1"
       style="fill:#e0e0e0;fill-opacity:1;stroke:#000000;stroke-width:0.6;stroke-linecap:round;stroke-linejoin:bevel;stroke-miterlimit:4;stroke-dasharray:none;stroke-opacity:1"
       id="path1637" />
  </g>
  <g
     transform="matrix(1.385313,0,0,1.385313,94.07286,609.7525)"
     style="fill:#e0e0e0;fill-opacity:1;stroke:#000000;stroke-width:0.6;stroke-linejoin:bevel;stroke-miterlimit:4;stroke-dasharray:none;stroke-opacity:1"
     id="g3400">
    <path
       d="m 0.65,-10.15 -2,2.6 v 2.15 l -2.25,2 v 1.75 L -4.85,-0.4 H -7.5 L -8.75,-2.3 H -10 l -1.85,2 v 4.15 l 8.1,4.25 H 3.9 l 6.5,4.25 V 8.45 L 11.8,7.1 7.25,2.85 v -2.5 l 4.25,-7.4 0.4,-2.6 -2,-2.65 H 6.4 l -1.75,2.15 h -4"
       style="fill:#e0e0e0;fill-opacity:1;stroke:#000000;stroke-width:0.6;stroke-linecap:round;stroke-linejoin:bevel;stroke-miterlimit:4;stroke-dasharray:none;stroke-opacity:1"
       id="path3402" />
  </g>
  <g
     transform="matrix(1.385313,0,0,1.385313,118.49663,609.7123)"
     style="fill:#e0e0e0;fill-opacity:1;stroke:#000000;stroke-width:0.6;stroke-linejoin:bevel;stroke-miterlimit:4;stroke-dasharray:none;stroke-opacity:1"
     id="g5161">
    <path
       d="m -1.1,-3 1.5,2.65 c 3.4333333,0.5 6.35,1.7 8.75,3.6 V 6.9 H 10.4 V 9.75 L 8.15,12 H 6 L -2.5,10 -10.4,2.9 V 0.4 l 4.25,-7.4 0.4,-2.6 4.65,-2.4 -1,3 1,6"
       style="fill:#e0e0e0;fill-opacity:1;stroke:#000000;stroke-width:0.6;stroke-linecap:round;stroke-linejoin:bevel;stroke-miterlimit:4;stroke-dasharray:none;stroke-opacity:1"
       id="path5163" />
  </g>
  <g
     transform="matrix(1.385313,0,0,1.385313,133.65611,632.1087)"
     style="fill:#e0e0e0;fill-opacity:1;stroke:#000000;stroke-width:0.6;stroke-linejoin:bevel;stroke-miterlimit:4;stroke-dasharray:none;stroke-opacity:1"
     id="g6049">
    <path
       d="M 9.3,-13.85 V -8.1 L 5.8,-5 h -3 L 1.55,-3.35 3.4,-1 h 5.4 v 1.15 h 5 l -2.65,3.25 2.5,1.75 V 6.5 h 3.15 v 1.25 h -2.4 v 3.4 h 3.75 l -3.35,4.6 -2.75,1.65 V 15.65 H 7.3 v 2 H 1.65 v -3.4 H -1.2 v 1 H -3.7 L -5.2,13.4 -7.6,5.4 -12.85,0 -14.1,1.25 V 5 h -4 V -7.75 l 1.4,-1.35 3.35,2.85 8.5,2 H -2.7 L -0.45,-6.5 V -9.35 H -1.7 V -13 h 1.5 l 2.5,-3.5 2.1,-1.1 h 1.9 l 3,3.75"
       style="fill:#e0e0e0;fill-opacity:1;stroke:#000000;stroke-width:0.6;stroke-linecap:round;stroke-linejoin:bevel;stroke-miterlimit:4;stroke-dasharray:none;stroke-opacity:1"
       id="path6051" />
  </g>
  <g
     transform="matrix(1.385313,0,0,1.385313,61.1155,597.9481)"
     style="fill:#e0e0e0;fill-opacity:1;stroke:#000000;stroke-width:0.6;stroke-linejoin:bevel;stroke-miterlimit:4;stroke-dasharray:none;stroke-opacity:1"
     id="g9577">
    <path
       d="m 0.15,-3.2 -2.25,1.5 v 3 l 2,1.9 2.25,-2 v -2.25 l -2,-2.15"
       style="fill:#e0e0e0;fill-opacity:1;stroke:#000000;stroke-width:0.6;stroke-linecap:round;stroke-linejoin:bevel;stroke-miterlimit:4;stroke-dasharray:none;stroke-opacity:1"
       id="path9579" />
  </g>
  <g
     transform="matrix(1.385313,0,0,1.385313,47.2225,566.0247)"
     style="fill:#e0e0e0;fill-opacity:1;stroke:#000000;stroke-width:0.6;stroke-linejoin:bevel;stroke-miterlimit:4;stroke-dasharray:none;stroke-opacity:1"
     id="g10465">
    <path
       d="m 2.6,-10.6 -2.9,1.4 v 2.85 l 0.4,2 h -1.9 v 4 L -2.25,0.4 1.2,2.65 v -5.1 l 1.75,-2 h 1.5 v -3.5 L 5.7,-9.35 V -10.6 H 2.6"
       style="fill:#e0e0e0;fill-opacity:1;stroke:#000000;stroke-width:0.6;stroke-linecap:round;stroke-linejoin:bevel;stroke-miterlimit:4;stroke-dasharray:none;stroke-opacity:1"
       id="path10467" />
    <path
       d="m -5.65,5.65 v 4 l 1.85,1 L 0.35,3.8 -4.3,1.9 -5.65,5.65"
       style="fill:#e0e0e0;fill-opacity:1;stroke:#000000;stroke-width:0.6;stroke-linecap:round;stroke-linejoin:bevel;stroke-miterlimit:4;stroke-dasharray:none;stroke-opacity:1"
       id="path10469" />
  </g>
  <g
     transform="matrix(1.385313,0,0,1.385313,219.78101,618.8775)"
     style="fill:#e0e0e0;fill-opacity:1;stroke:#000000;stroke-width:0.6;stroke-linejoin:bevel;stroke-miterlimit:4;stroke-dasharray:none;stroke-opacity:1"
     id="g11356">
    <path
       d="m 4.1,1.15 -9.5,6.1 -2.9,7.75 -4.1,4.75 h -2.15 V 25 l -1.85,1.4 v 1.25 l 2,1 v 2 h -1.9 l -1.5,-2.25 h -5.1 l -3.15,-1.25 v -2.4 h 2 V 22.9 l -1,-2.4 -1.5,-6.75 h 3 L -18.4,9.5 V 3.4 h 4.5 c 2.1,-5.5333333 5.1833333,-9.75 9.25,-12.65 h 4.6 l 2.25,1.15 1.65,-2.25 5.95,-0.25 6,2.25 1.25,-1 h 2.15 v 4.25 l 3.85,2 v 2.75 L 24.3,1.9 h 2.25 C 24.316667,3.8333333 23,7.3833333 22.6,12.55 L 12.7,2.4 4.1,1.15"
       style="fill:#e0e0e0;fill-opacity:1;stroke:#000000;stroke-width:0.6;stroke-linecap:round;stroke-linejoin:bevel;stroke-miterlimit:4;stroke-dasharray:none;stroke-opacity:1"
       id="path11358" />
  </g>
  <g
     transform="matrix(1.385313,0,0,1.385313,252.12113,604.5507)"
     style="fill:#e0e0e0;fill-opacity:1;stroke:#000000;stroke-width:0.6;stroke-linejoin:bevel;stroke-miterlimit:4;stroke-dasharray:none;stroke-opacity:1"
     id="g12244">
    <path
       d="M 8.65,-11.1 H 0 l -5,3.6 -2.1,-2 -7.4,3.05 -1.6,1.6 v 4.75 h 2.6 l 6,2.25 1.25,-1 H -4.1 V 5.4 l 3.85,2 v 2.75 L 1,12.4 H 3.25 C 5.3833333,9.4 8.7333333,6.5166667 13.3,3.75 L 16.15,2.5 13.65,1 l 1.4,-1.5 v -1.35 l -1.4,-2.4 h -1.5 V -8.6 l 1.9,-2 -1.4,-1.75 h -4 v 1.25"
       style="fill:#e0e0e0;fill-opacity:1;stroke:#000000;stroke-width:0.6;stroke-linecap:round;stroke-linejoin:bevel;stroke-miterlimit:4;stroke-dasharray:none;stroke-opacity:1"
       id="path12246" />
  </g>
  <g
     transform="matrix(1.385313,0,0,1.385313,244.9116,582.2609)"
     style="fill:#e0e0e0;fill-opacity:1;stroke:#000000;stroke-width:0.6;stroke-linejoin:bevel;stroke-miterlimit:4;stroke-dasharray:none;stroke-opacity:1"
     id="g13132">
    <path
       d="M 5.1,-6.35 4.85,-8 H 6.6 l 1.5,-1.5 h 3 v 4.4 H 7.7 L 6.6,-6.35 H 5.1"
       style="fill:#e0e0e0;fill-opacity:1;stroke:#000000;stroke-width:0.6;stroke-linecap:round;stroke-linejoin:bevel;stroke-miterlimit:4;stroke-dasharray:none;stroke-opacity:1"
       id="path13134" />
    <path
       d="m 4.7,-3.75 0.5,2.35 h 2.5 l 1,0.8 v 1.85 l 5.25,2.4 V 4.9 H 5.3 l -5,3.6 -2.1,-2 -7.4,3.05 h -4.7 L -12.05,7.9 V 4.25 L -13.2,1 l 3,1.4 5,-3.75 v -1.5 l 1.65,-1.5 4.1,2.75 h 2 L 4.7,-3.75"
       style="fill:#e0e0e0;fill-opacity:1;stroke:#000000;stroke-width:0.6;stroke-linecap:round;stroke-linejoin:bevel;stroke-miterlimit:4;stroke-dasharray:none;stroke-opacity:1"
       id="path13136" />
  </g>
  <g
     transform="matrix(1.385313,0,0,1.385313,195.20001,620.1021)"
     style="fill:#e0e0e0;fill-opacity:1;stroke:#000000;stroke-width:0.6;stroke-linejoin:bevel;stroke-miterlimit:4;stroke-dasharray:none;stroke-opacity:1"
     id="g14023">
    <path
       d="M 13.05,-10.2 C 8.9833333,-7.3 5.9,-3.0833333 3.8,2.45 h -4.5 v 6.1 l -5.15,4.25 h -3 l 1.5,6.75 1,2.4 h -5.1 l -3.65,-5.25 2.25,-1.75 -1.35,-3.9 h 2.35 V 9.45 L -13.6,7.7 -11.7,6.55 h -3.5 V 2.3 l -1.5,-1.6 -5,3.1 -1.15,1.4 H -26.5 L -24,2.05 h 2.9 l 16,-11.5 v -4.85 h 1.6 l 1.4,-4.15 5.1,-3.5 4.75,6.75 h 3.9 l 8.25,-1 1.9,-1.7 h 4.7 l -1.6,1.6 v 4.75 l -3.35,0.25 -1.65,2.25 -2.25,-1.15 h -4.6"
       style="fill:#e0e0e0;fill-opacity:1;stroke:#000000;stroke-width:0.6;stroke-linecap:round;stroke-linejoin:bevel;stroke-miterlimit:4;stroke-dasharray:none;stroke-opacity:1"
       id="path14025" />
  </g>
  <g
     transform="matrix(1.385313,0,0,1.385313,281.1324,578.2455)"
     style="fill:#e0e0e0;fill-opacity:1;stroke:#000000;stroke-width:0.6;stroke-linejoin:bevel;stroke-miterlimit:4;stroke-dasharray:none;stroke-opacity:1"
     id="g14911">
    <path
       d="m 3.85,-3.3 1.5,-3.1 -1.5,-0.9 -7.15,7.15 V 1.6 l -2,1.35 V 5.1 l 1.4,2.25 h 3.1 L 0.45,5.85 H 2.2 l 1,-1.5 -2,-1.65 v -3.6 l 2.65,-2.4"
       style="fill:#e0e0e0;fill-opacity:1;stroke:#000000;stroke-width:0.6;stroke-linecap:round;stroke-linejoin:bevel;stroke-miterlimit:4;stroke-dasharray:none;stroke-opacity:1"
       id="path14913" />
  </g>
  <g
     transform="matrix(1.385313,0,0,1.385313,131.78038,576.3401)"
     style="fill:#e0e0e0;fill-opacity:1;stroke:#000000;stroke-width:0.6;stroke-linejoin:bevel;stroke-miterlimit:4;stroke-dasharray:none;stroke-opacity:1"
     id="g15799">
    <path
       d="M 13.5,-2.85 12.1,-4.7 v -7.9 H 9.2 l -9.35,9.25 h -2.9 V -5.2 h -2.1 v 1.1 h -3.4 l -2,-1 v 2.5 h -3.1 v 3.9 h 1.35 v 2.35 l -2.1,2 1.35,2.15 v 4.6 l 2.85,-2.6 h 2.55 l 2.75,2.85 h 3.85 l 1.65,-2.1 h 1.6 v 1.6 h 2 v -2.1 L 8.85,5.3 V 2.65 h 3.1 L 14.4,0.35 13.5,-0.6 v -2.25"
       style="fill:#e0e0e0;fill-opacity:1;stroke:#000000;stroke-width:0.6;stroke-linecap:round;stroke-linejoin:bevel;stroke-miterlimit:4;stroke-dasharray:none;stroke-opacity:1"
       id="path15801" />
  </g>
  <g
     transform="matrix(1.385313,0,0,1.385313,152.75251,588.3444)"
     style="fill:#e0e0e0;fill-opacity:1;stroke:#000000;stroke-width:0.6;stroke-linejoin:bevel;stroke-miterlimit:4;stroke-dasharray:none;stroke-opacity:1"
     id="g1687">
    <path
       d="M 0,-7.55 -0.85,-8.5 -3.3,-6.2 h -3.1 v 2.65 l -4.65,4.75 2.15,2 3.1,-1.65 h 4 v 4.4 h 1.65 l 1.75,-1.5 6,4.35 3.5,-4 V -1.55 L 6.35,-8.8 3.85,-7.55 H 0"
       style="fill:#e0e0e0;fill-opacity:1;stroke:#000000;stroke-width:0.6;stroke-linecap:round;stroke-linejoin:bevel;stroke-miterlimit:4;stroke-dasharray:none;stroke-opacity:1"
       id="path1689" />
  </g>
  <g
     transform="matrix(1.385313,0,0,1.385313,182.37002,568.4591)"
     style="fill:#e0e0e0;fill-opacity:1;stroke:#000000;stroke-width:0.6;stroke-linejoin:bevel;stroke-miterlimit:4;stroke-dasharray:none;stroke-opacity:1"
     id="g2575">
    <path
       d="m 6.1,-12.85 -4.5,2.25 h -8.75 l -3.35,2.75 -1.15,5.75 -1.35,1.25 v 1.6 l -1.9,1.5 v 3.4 L -10.15,12.9 -8.9,8.5 -4.05,4.85 -1.4,6.5 V 7.85 L 0.95,11 H 5.7 L 9.95,7.1 h 5 V 4.6 l -3,-6.1 -5,-2.4 v -2 l 2.25,-2.35 -3.1,-4.6"
       style="fill:#e0e0e0;fill-opacity:1;stroke:#000000;stroke-width:0.6;stroke-linecap:round;stroke-linejoin:bevel;stroke-miterlimit:4;stroke-dasharray:none;stroke-opacity:1"
       id="path2577" />
  </g>
  <g
     transform="matrix(1.385313,0,0,1.385313,207.02085,558.737)"
     style="fill:#e0e0e0;fill-opacity:1;stroke:#000000;stroke-width:0.6;stroke-linejoin:bevel;stroke-miterlimit:4;stroke-dasharray:none;stroke-opacity:1"
     id="g3463">
    <path
       d="m 0.05,-12.95 -1.15,-1 h -5 l -5.6,6.35 v 1.8 l 3.1,4.6 -2.25,2.35 v 2 l 5,2.4 3,6.1 v 2.5 h 2.05 v -1.5 h 4 l 1,-1.6 h 1.1 v 1.85 h 2 L 11.7,9.4 V 6.65 L 7.55,-4.7 v -5.9 l -3.9,-3.55 -1,1.2 h -2.6"
       style="fill:#e0e0e0;fill-opacity:1;stroke:#000000;stroke-width:0.6;stroke-linecap:round;stroke-linejoin:bevel;stroke-miterlimit:4;stroke-dasharray:none;stroke-opacity:1"
       id="path3465" />
  </g>
  <g
     transform="matrix(1.385313,0,0,1.385313,225.0757,553.9822)"
     style="fill:#e0e0e0;fill-opacity:1;stroke:#000000;stroke-width:0.6;stroke-linejoin:bevel;stroke-miterlimit:4;stroke-dasharray:none;stroke-opacity:1"
     id="g4351">
    <path
       d="m 0,-12.95 -4.35,4.1 -3.1,0.05 1.95,1.75 v 5.9 l 4.15,11.35 v 2.75 H 2.4 L 7.5,9.1 V 4.7 L 3.4,0.45 v -7.6 L 0,-12.95"
       style="fill:#e0e0e0;fill-opacity:1;stroke:#000000;stroke-width:0.6;stroke-linecap:round;stroke-linejoin:bevel;stroke-miterlimit:4;stroke-dasharray:none;stroke-opacity:1"
       id="path4353" />
  </g>
  <g
     transform="matrix(1.385313,0,0,1.385313,244.29541,562.1426)"
     style="fill:#e0e0e0;fill-opacity:1;stroke:#000000;stroke-width:0.6;stroke-linejoin:bevel;stroke-miterlimit:4;stroke-dasharray:none;stroke-opacity:1"
     id="g5239">
    <path
       d="m 9.6,-8.8 -2.85,1.15 -17.25,-0.4 v 2.5 l 4.1,4.25 V 3.1 L -8.95,5.05 V 7.2 h 2.45 v 1.65 h 1.75 L -1.4,7.7 2,3.6 h 3.1 l 5.4,-5.25 -0.9,-3.4 V -8.8"
       style="fill:#e0e0e0;fill-opacity:1;stroke:#000000;stroke-width:0.6;stroke-linecap:round;stroke-linejoin:bevel;stroke-miterlimit:4;stroke-dasharray:none;stroke-opacity:1"
       id="path5241" />
  </g>
  <g
     transform="matrix(1.385313,0,0,1.385313,243.76146,540.1752)"
     style="fill:#e0e0e0;fill-opacity:1;stroke:#000000;stroke-width:0.6;stroke-linejoin:bevel;stroke-miterlimit:4;stroke-dasharray:none;stroke-opacity:1"
     id="g6127">
    <path
       d="m 13.6,-2.55 v 3.6 L 9.95,4.8 V 7.05 L 7.1,8.2 -10.15,7.8 V 2.7 l -3.4,-5.8 4.4,-4.2 h 10.5 l 0.95,-0.9 2.65,0.75 3.9,4.9 h 4.75"
       style="fill:#e0e0e0;fill-opacity:1;stroke:#000000;stroke-width:0.6;stroke-linecap:round;stroke-linejoin:bevel;stroke-miterlimit:4;stroke-dasharray:none;stroke-opacity:1"
       id="path6129" />
  </g>
  <g
     transform="matrix(1.385313,0,0,1.385313,275.5302,550.3531)"
     style="fill:#e0e0e0;fill-opacity:1;stroke:#000000;stroke-width:0.6;stroke-linejoin:bevel;stroke-miterlimit:4;stroke-dasharray:none;stroke-opacity:1"
     id="g7015">
    <path
       d="m 7.5,-7.75 3.3,4.9 2.35,1.15 -2.6,14.1 L 0.9,5.8 h -2.35 v 1 h -3 V 5.3 h -3.4 l -1.5,1.5 h -2.85 l -0.9,-3.4 v -6 l 3.65,-3.75 v -3.6 l 3.75,-2.4 v 1.5 l 4.35,-0.25 1.75,1.75 h 7.15 l -0.05,1.6"
       style="fill:#e0e0e0;fill-opacity:1;stroke:#000000;stroke-width:0.6;stroke-linecap:round;stroke-linejoin:bevel;stroke-miterlimit:4;stroke-dasharray:none;stroke-opacity:1"
       id="path7017" />
  </g>
  <g
     transform="matrix(1.385313,0,0,1.385313,169.60872,553.9576)"
     style="fill:#e0e0e0;fill-opacity:1;stroke:#000000;stroke-width:0.6;stroke-linejoin:bevel;stroke-miterlimit:4;stroke-dasharray:none;stroke-opacity:1"
     id="g7903">
    <path
       d="m 13.9,-15.1 1.35,6.35 v 6.4 l -4.5,2.25 H 2 L -1.35,2.65 -2.5,8.4 -3.85,9.65 v 1.6 l -1.9,1.5 v 3.4 l -2.5,1.25 h -3.85 l -1.75,-1.9 v -2.25 l -1.4,-1.85 V 3.5 h 2.4 l 10.6,-10 5.5,-3.85 h 1.5 L 5.9,-11.5 v -1.1 l 2.35,-3.25 3,-1.5 2.65,2.25"
       style="fill:#e0e0e0;fill-opacity:1;stroke:#000000;stroke-width:0.6;stroke-linecap:round;stroke-linejoin:bevel;stroke-miterlimit:4;stroke-dasharray:none;stroke-opacity:1"
       id="path7905" />
  </g>
  <g
     transform="matrix(1.385313,0,0,1.385313,201.96312,530.2244)"
     style="fill:#e0e0e0;fill-opacity:1;stroke:#000000;stroke-width:0.6;stroke-linejoin:bevel;stroke-miterlimit:4;stroke-dasharray:none;stroke-opacity:1"
     id="g8791">
    <path
       d="m 7.45,-6.05 h 3.1 l 1.5,3.65 V 0.35 L 6.3,7.6 H 3.7 l -1.15,-1 h -5 l -5.6,6.35 V 8.35 L -9.4,2 -12.05,-0.25 -8.2,-3.4 V -5.05 L -9.55,-6.8 h 3.75 l 2.75,-2.5 H 1.3 l 4.25,-3.6 1.75,2.25 h 4.65 l -2,1.5 H 6.2 l -1.25,1.1 H 0.7 l -1.9,2.4 h 2.25 l 2.4,-1.4 h 2.5 l 1.5,1"
       style="fill:#e0e0e0;fill-opacity:1;stroke:#000000;stroke-width:0.6;stroke-linecap:round;stroke-linejoin:bevel;stroke-miterlimit:4;stroke-dasharray:none;stroke-opacity:1"
       id="path8793" />
  </g>
  <g
     transform="matrix(1.385313,0,0,1.385313,230.09186,529.6496)"
     style="fill:#e0e0e0;fill-opacity:1;stroke:#000000;stroke-width:0.6;stroke-linejoin:bevel;stroke-miterlimit:4;stroke-dasharray:none;stroke-opacity:1"
     id="g9679">
    <path
       d="m 2.85,-7.65 -3.1,-1 h -3.5 L -5.4,-5.8 H -6.75 L -9.5,-7.9 h -1.65 l 1.35,2.35 1.5,3.65 V 0.85 L -13.05,6.9 -11.1,8.7 -8,8.65 0.75,0.35 h 10.5 L 13.1,-1.4 v -2.25 l -2.75,-4 h -7.5"
       style="fill:#e0e0e0;fill-opacity:1;stroke:#000000;stroke-width:0.6;stroke-linecap:round;stroke-linejoin:bevel;stroke-miterlimit:4;stroke-dasharray:none;stroke-opacity:1"
       id="path9681" />
  </g>
  <g
     transform="matrix(1.385313,0,0,1.385313,212.85032,484.0977)"
     style="fill:#e0e0e0;fill-opacity:1;stroke:#000000;stroke-width:0.6;stroke-linejoin:bevel;stroke-miterlimit:4;stroke-dasharray:none;stroke-opacity:1"
     id="g10567">
    <path
       d="M 7.15,-0.95 4.75,0.55 3.15,0.2 0.75,-1.3 v -2.65 l 2.5,-3 3.9,3.15 v 2.85"
       style="fill:#e0e0e0;fill-opacity:1;stroke:#000000;stroke-width:0.6;stroke-linecap:round;stroke-linejoin:bevel;stroke-miterlimit:4;stroke-dasharray:none;stroke-opacity:1"
       id="path10569" />
    <path
       d="M -3,1.45 V 5.8 L -0.25,3.2 -3,1.45 m -1.1,-0.25 -1,0.35 v 2.3 l 1,0.95 V 1.2 m -2,0.7 v 3.25 l -1,-0.95 v -2 l 1,-0.3 m 1,5.05 h 2.25 L -4.35,5.8 -5.1,6.55 v 0.4"
       style="fill:#e0e0e0;fill-opacity:1;stroke:#000000;stroke-width:0.6;stroke-linecap:round;stroke-linejoin:bevel;stroke-miterlimit:4;stroke-dasharray:none;stroke-opacity:1"
       id="path10571" />
  </g>
  <g
     transform="matrix(1.385313,0,0,1.385313,256.16057,525.2276)"
     style="fill:#e0e0e0;fill-opacity:1;stroke:#000000;stroke-width:0.6;stroke-linejoin:bevel;stroke-miterlimit:4;stroke-dasharray:none;stroke-opacity:1"
     id="g11458">
    <path
       d="m 6.45,-4.4 2,5.4 V 5.85 L 4.7,8.25 H -0.05 L -3.95,3.35 -6.6,2.6 -5.7,1.75 V -0.5 l -2.75,-4 1.9,-1.25 2.5,1.5 1.25,-1 h 3.25 l 4,-3 h 2 v 3.85"
       style="fill:#e0e0e0;fill-opacity:1;stroke:#000000;stroke-width:0.6;stroke-linecap:round;stroke-linejoin:bevel;stroke-miterlimit:4;stroke-dasharray:none;stroke-opacity:1"
       id="path11460" />
  </g>
  <g
     transform="matrix(1.385313,0,0,1.385313,279.308,524.6264)"
     style="fill:#e0e0e0;fill-opacity:1;stroke:#000000;stroke-width:0.6;stroke-linejoin:bevel;stroke-miterlimit:4;stroke-dasharray:none;stroke-opacity:1"
     id="g12346">
    <path
       d="M 3.05,-3.6 6.3,-2.1 H 9.05 L 10.3,-0.25 5.05,4 4.95,9.25 H -2.2 L -3.95,7.5 -8.3,7.75 V 1.4 l -2,-5.4 v -3.85 l 3.1,-1.4 1.5,1 h 8.75 v 4.65"
       style="fill:#e0e0e0;fill-opacity:1;stroke:#000000;stroke-width:0.6;stroke-linecap:round;stroke-linejoin:bevel;stroke-miterlimit:4;stroke-dasharray:none;stroke-opacity:1"
       id="path12348" />
  </g>
  <g
     transform="matrix(1.385313,0,0,1.385313,301.5879,538.2717)"
     style="fill:#e0e0e0;fill-opacity:1;stroke:#000000;stroke-width:0.6;stroke-linejoin:bevel;stroke-miterlimit:4;stroke-dasharray:none;stroke-opacity:1"
     id="g13234">
    <path
       d="m 11.2,-6.3 v 7 L 6.1,10.1 H 3.35 l -3.5,-3 h -5.4 l -2.35,-1.15 -3.3,-4.9 0.05,-1.6 0.1,-5.25 5.25,-4.25 2.9,3.9 h 1.6 l 5.5,-3.65 7,3.5"
       style="fill:#e0e0e0;fill-opacity:1;stroke:#000000;stroke-width:0.6;stroke-linecap:round;stroke-linejoin:bevel;stroke-miterlimit:4;stroke-dasharray:none;stroke-opacity:1"
       id="path13236" />
  </g>
  <g
     transform="matrix(1.385313,0,0,1.385313,296.5455,518.3218)"
     style="fill:#e0e0e0;fill-opacity:1;stroke:#000000;stroke-width:0.6;stroke-linejoin:bevel;stroke-miterlimit:4;stroke-dasharray:none;stroke-opacity:1"
     id="g14122">
    <path
       d="M 0.2,-0.7 3.7,2.55 7.95,-1.7 9.45,0.55 7.8,1.95 v 2.6 L 2.3,8.2 H 0.7 L -3.45,2.45 H -6.2 L -9.45,0.95 V -3.7 h 2.15 l 3.85,-3.6 h 2.25 v -0.9 h 4 l 1.15,2.9 -3.75,4.6"
       style="fill:#e0e0e0;fill-opacity:1;stroke:#000000;stroke-width:0.6;stroke-linecap:round;stroke-linejoin:bevel;stroke-miterlimit:4;stroke-dasharray:none;stroke-opacity:1"
       id="path14124" />
  </g>
  <g
     transform="matrix(1.385313,0,0,1.385313,301.7278,558.554)"
     style="fill:#e0e0e0;fill-opacity:1;stroke:#000000;stroke-width:0.6;stroke-linejoin:bevel;stroke-miterlimit:4;stroke-dasharray:none;stroke-opacity:1"
     id="g15010">
    <path
       d="M 5.9,-4.65 H 3.15 l -3.5,-3 h -5.4 l -2.7037844,14.3075688 5.75,-3.35 L 0.65,3.1 3,5.6 v 2.1 h 3.4 l 2,-8.1 v -2.65 l -2.5,-1.6"
       style="fill:#e0e0e0;fill-opacity:1;stroke:#000000;stroke-width:0.6;stroke-linecap:round;stroke-linejoin:bevel;stroke-miterlimit:4;stroke-dasharray:none;stroke-opacity:1"
       id="path15012" />
  </g>
  <g
     transform="matrix(1.385313,0,0,1.385313,300.1098,576.8374)"
     style="fill:#e0e0e0;fill-opacity:1;stroke:#000000;stroke-width:0.6;stroke-linejoin:bevel;stroke-miterlimit:4;stroke-dasharray:none;stroke-opacity:1"
     id="g15898">
    <path
       d="m 7.65,-5.5 h -3.4 v 2.15 L 0.75,0.5 -7.6,5.5 3.5,4.25 6.75,-1.1 7.65,-5.5"
       style="fill:#e0e0e0;fill-opacity:1;stroke:#000000;stroke-width:0.6;stroke-linecap:round;stroke-linejoin:bevel;stroke-miterlimit:4;stroke-dasharray:none;stroke-opacity:1"
       id="path15900" />
  </g>
  <g
     transform="matrix(1.385313,0,0,1.385313,321.1119,575.117)"
     style="fill:#e0e0e0;fill-opacity:1;stroke:#000000;stroke-linejoin:bevel;stroke-opacity:1"
     id="g19455" />
  <g
     transform="matrix(1.385313,0,0,1.385313,324.4234,584.314)"
     style="fill:#e0e0e0;fill-opacity:1;stroke:#000000;stroke-width:0.6;stroke-linejoin:bevel;stroke-miterlimit:4;stroke-dasharray:none;stroke-opacity:1"
     id="g22122">
    <path
       d="M 9.7,-8.85 H 5.6 v -4.9 l -1.15,-1 h -6.1 l -2.65,-1 -3.1,5 v 2.25 l 1.25,1.25 V 3 l -4.5,5.4 1.6,2.35 v 2.4 l 3.15,2.6 H 0.35 V 14 L 4.1,11 h 2.6 l 1.15,-2 0.1,-9.85 h -1.6 v -3.4 H 7.7 l 3,-2 -1,-2.6"
       style="fill:#e0e0e0;fill-opacity:1;stroke:#000000;stroke-width:0.6;stroke-linecap:round;stroke-linejoin:bevel;stroke-miterlimit:4;stroke-dasharray:none;stroke-opacity:1"
       id="path22124" />
  </g>
  <g
     transform="matrix(1.385313,0,0,1.385313,321.2497,547.329)"
     style="fill:#e0e0e0;fill-opacity:1;stroke:#000000;stroke-width:0.6;stroke-linejoin:bevel;stroke-miterlimit:4;stroke-dasharray:none;stroke-opacity:1"
     id="g23010">
    <path
       d="m 0.45,-12.85 h -3.5 v 7 l -5.1,9.4 2.5,1.6 3.6,5.75 2.65,1 h 6.1 l 1.15,1 v -2 l 0.35,-3 h -1 L 2.35,5.3 1.2,2.4 v -6 h 1.25 v -7.1 l -2,-2.15"
       style="fill:#e0e0e0;fill-opacity:1;stroke:#000000;stroke-width:0.6;stroke-linecap:round;stroke-linejoin:bevel;stroke-miterlimit:4;stroke-dasharray:none;stroke-opacity:1"
       id="path23012" />
  </g>
  <g
     transform="matrix(1.385313,0,0,1.385313,311.6273,568.9246)"
     style="fill:#e0e0e0;fill-opacity:1;stroke:#000000;stroke-width:0.6;stroke-linejoin:bevel;stroke-miterlimit:4;stroke-dasharray:none;stroke-opacity:1"
     id="g23919">
    <path
       d="M 3.0454128,9.0103211 3.1834965,3.8726039 1.9849668,2.5113885 2.0138275,0.20348068 4.9,-4.5 1.5075688,-9.8348624 1.3,-7.6 -0.68493811,-0.19173449 -1.5072271,4.33775 -4.7405049,9.9594612 -1.351934,10.041328 0.25307337,8.936706 2.9786697,9.0830275"
       style="opacity:1;fill:#e0e0e0;fill-opacity:1;stroke:#000000;stroke-width:0.6;stroke-linecap:round;stroke-linejoin:bevel;stroke-miterlimit:4;stroke-dasharray:none;stroke-opacity:1"
       id="path23921" />
  </g>
  <g
     transform="matrix(1.385313,0,0,1.385313,319.9669,522.3115)"
     style="fill:#e0e0e0;fill-opacity:1;stroke:#000000;stroke-width:0.6;stroke-linejoin:bevel;stroke-miterlimit:4;stroke-dasharray:none;stroke-opacity:1"
     id="g30924">
    <path
       d="m 9.15,-0.15 -5.6,4.1 H 1.4 V 5.2 h -3.5 l -7,-3.5 v -2.6 l 1.65,-1.4 1.25,1.5 h 2.35 v 1.25 h 3.5 l -1.35,-2.1 v -1 h 1.75 l 1.25,1.5 1.6,-1.65 v -2.35 h 2.15 v 1.1 h 4.1 v 3.9"
       style="fill:#e0e0e0;fill-opacity:1;stroke:#000000;stroke-width:0.6;stroke-linecap:round;stroke-linejoin:bevel;stroke-miterlimit:4;stroke-dasharray:none;stroke-opacity:1"
       id="path30926" />
  </g>
  <g
     transform="matrix(1.385313,0,0,1.385313,348.4634,501.6592)"
     style="fill:#e0e0e0;fill-opacity:1;stroke:#000000;stroke-width:0.6;stroke-linejoin:bevel;stroke-miterlimit:4;stroke-dasharray:none;stroke-opacity:1"
     id="g31812">
    <path
       d="m 10.8,-2 2.65,3 v 1.85 l -2.5,1.65 h -12 L -4,8.25 h -3.15 v 3.25 l -4.25,3.25 v -3.9 h -2.05 v -5.1 h 2.05 V 8.6 h 2.25 V 3.75 l -3.4,-2.5 v -5.9 l 5.25,-8.6 3.25,-1.5 2.4,2.25 v 2.6 l 2.75,1.5 h 2.85 l 2.9,2 H 10.8 V -2"
       style="fill:#e0e0e0;fill-opacity:1;stroke:#000000;stroke-width:0.6;stroke-linecap:round;stroke-linejoin:bevel;stroke-miterlimit:4;stroke-dasharray:none;stroke-opacity:1"
       id="path31814" />
  </g>
  <path
     d="m 368.82825,452.30887 v 3.32474 l -3.67108,5.54125 v 7.96554 h 1.73164 v 3.60182 l -2.2165,1.73165 v 7.2729 l 1.87017,1.38531 v 4.36374 l -3.18621,5.33346 h -5.47199 l -4.01741,-2.77063 h -3.94814 l -3.80961,-2.07799 v -3.60181 l -3.32474,-3.11694 2.14722,-2.07797 v -1.38532 h 2.90917 l 5.54123,-7.96556 5.74906,-6.92656 5.54125,-12.81413 4.15594,2.2165"
     style="fill:#e0e0e0;fill-opacity:1;stroke:#000000;stroke-width:0.831188;stroke-linecap:round;stroke-linejoin:bevel;stroke-miterlimit:4;stroke-dasharray:none;stroke-opacity:1"
     id="path1781" />
  <g
     transform="matrix(1.385313,0,0,1.385313,375.4584,434.3261)"
     style="fill:#e0e0e0;fill-opacity:1;stroke:#000000;stroke-width:0.6;stroke-linejoin:bevel;stroke-miterlimit:4;stroke-dasharray:none;stroke-opacity:1"
     id="g2667">
    <path
       d="M 2.8,-2.05 -0.15,1.7 -2.9,-0.15 -4.55,3.95 V 5.6 l 2.9,1.25 2.6,-2 v 5.1 h -3 l -2.7,3 -3,-1.6 V 9.1 L -9.4,7.1 V 3.6 l -0.9,-0.5 v -3.4 h 1 v -3.85 l 4.5,-2.75 h 4.15 l 4.75,-3.5 h 4.75 l 1.5,1.5 v 1.75 H 7.45 V -4.6 L 5.1,-2.05 H 2.8 M -2.5,4.7 V 3.2 h 2.75 l -1,1.5 H -2.5"
       style="fill:#e0e0e0;fill-opacity:1;stroke:#000000;stroke-width:0.6;stroke-linecap:round;stroke-linejoin:bevel;stroke-miterlimit:4;stroke-dasharray:none;stroke-opacity:1"
       id="path2669" />
  </g>
  <g
     transform="matrix(1.385313,0,0,1.385313,384.9519,465.9792)"
     style="fill:#e0e0e0;fill-opacity:1;stroke:#000000;stroke-width:0.6;stroke-linejoin:bevel;stroke-miterlimit:4;stroke-dasharray:none;stroke-opacity:1"
     id="g3555">
    <path
       d="m 10.2,-13.35 h 2.35 l 2.15,4.4 V 0.8 L 9.8,8.9 h -2 L 4.45,6.9 H -2.9 l -3.65,3.65 -1.25,2.85 h -1.9 v -2.6 h -2.5 l -1.75,1.1 -0.7,-0.5 V 6.15 l 1.6,-1.25 V 2.3 h -1.25 v -5.75 l 2.65,-4 v -2.4 l 2.7,-3 h 3 v 1.4 l -1.5,1 v 2.1 l 4.15,3.4 h 3.85 l 3.9,-2.5 v -3.65 l 5.75,-2.25"
       style="fill:#e0e0e0;fill-opacity:1;stroke:#000000;stroke-width:0.6;stroke-linecap:round;stroke-linejoin:bevel;stroke-miterlimit:4;stroke-dasharray:none;stroke-opacity:1"
       id="path3557" />
  </g>
  <g
     transform="matrix(1.385313,0,0,1.385313,446.9141,412.5087)"
     style="fill:#e0e0e0;fill-opacity:1;stroke:#000000;stroke-width:0.6;stroke-linejoin:bevel;stroke-miterlimit:4;stroke-dasharray:none;stroke-opacity:1"
     id="g4443">
    <path
       d="m 21.6,-33.2 -2.15,5.25 -1.35,8.15 -3.5,6.35 -9.4,4.25 -4.85,4.65 -1.75,5.75 -5.15,9.25 -9.35,6.5 v 1.5 h -4.75 l -4,3.6 -7.5,3.25 2.15,4.4 v 3.5 l 1.95,-2.15 v -3.1 h 5 l 1.5,2.25 h 6.5 l 5.65,-6.9 h 2.85 l 1.9,1.25 v 2.9 l 1.5,1.6 v 3.9 H 2.1 l 1.5,-2.9 H 5.85 V 24.8 l 4.35,-3 3.15,4.25 H 14.6 V 21.7 l -1.4,-5.15 h -1.25 v -4.5 L 13.2,11.8 V 6.75 l 1.25,-0.8 h 3.25 l 1.5,-1.5 h 4.75 v -4.5 l 3.4,-4.65 -3.4,-4 1.75,-4.1 v -5.9 l 1.75,-1.85 h 2.5 l 2.25,-1.75 -3,-3.65 h -1.75 v -3.85 l -5.85,-3.4"
       style="fill:#e0e0e0;fill-opacity:1;stroke:#000000;stroke-width:0.6;stroke-linecap:round;stroke-linejoin:bevel;stroke-miterlimit:4;stroke-dasharray:none;stroke-opacity:1"
       id="path4445" />
  </g>
  <g
     transform="matrix(1.385313,0,0,1.385313,430.5584,391.6268)"
     style="fill:#e0e0e0;fill-opacity:1;stroke:#000000;stroke-width:0.6;stroke-linejoin:bevel;stroke-miterlimit:4;stroke-dasharray:none;stroke-opacity:1"
     id="g5331">
    <path
       d="m 1.45,-3.3 v 2.9 h 3 l 1,1 -2,4.1 -3,2.9 -3.25,2.1 H -5.45 V 8.2 L -3.2,6.45 -1.8,3.7 -3.05,1.95 -4.7,3.45 v -5.1 l 5.15,-6.4 1.75,-1.6 h 1.5 v 2.1 L 1.45,-3.3"
       style="fill:#e0e0e0;fill-opacity:1;stroke:#000000;stroke-width:0.6;stroke-linecap:round;stroke-linejoin:bevel;stroke-miterlimit:4;stroke-dasharray:none;stroke-opacity:1"
       id="path5333" />
  </g>
  <g
     transform="matrix(1.385313,0,0,1.385313,336.6682,565.6177)"
     style="fill:#e0e0e0;fill-opacity:1;stroke:#000000;stroke-width:0.6;stroke-linejoin:bevel;stroke-miterlimit:4;stroke-dasharray:none;stroke-opacity:1"
     id="g6234">
    <path
       d="m 1.3,-7.3 h -3.25 l -1,2.1 -0.35,3 v 6.9 h 4.1 l 1,2.6 1.5,-5.85 v -6 l -2,-2.75"
       style="fill:#e0e0e0;fill-opacity:1;stroke:#000000;stroke-width:0.6;stroke-linecap:round;stroke-linejoin:bevel;stroke-miterlimit:4;stroke-dasharray:none;stroke-opacity:1"
       id="path6236" />
  </g>
  <g
     transform="matrix(1.385313,0,0,1.385313,348.0323,563.7589)"
     style="fill:#e0e0e0;fill-opacity:1;stroke:#000000;stroke-width:0.6;stroke-linejoin:bevel;stroke-miterlimit:4;stroke-dasharray:none;stroke-opacity:1"
     id="g7122">
    <path
       d="m 6.3,-18.85 -1.35,-1.4 H 2.8 l -1.75,1.9 v 5.25 l -4.75,7 h -3.25 l 2,2.75 v 6 l -1.5,5.85 -3,2 h -1.35 v 3.4 h 1.6 l -0.1,2.85 5.1,2.25 v 1.25 l 8.15,-4.1 3.85,-1.4 3,-3.5 V 7.5 L 4.05,2.9 V 0.55 h -1.1 v -1.9 l 5,-7 2.1,-4.5 L 7.45,-16 H 6.3 v -2.85"
       style="fill:#e0e0e0;fill-opacity:1;stroke:#000000;stroke-width:0.6;stroke-linecap:round;stroke-linejoin:bevel;stroke-miterlimit:4;stroke-dasharray:none;stroke-opacity:1"
       id="path7124" />
  </g>
  <g
     transform="matrix(1.385313,0,0,1.385313,364.1334,580.7732)"
     style="fill:#e0e0e0;fill-opacity:1;stroke:#000000;stroke-width:0.6;stroke-linejoin:bevel;stroke-miterlimit:4;stroke-dasharray:none;stroke-opacity:1"
     id="g8010">
    <path
       d="m 2.05,-4.8 h -2.9 v 3.75 l -3,3.5 h 2.75 v 2.4 h 3.65 v -4 L 3.9,-0.8 V -2.9 H 2.05 v -1.9"
       style="fill:#e0e0e0;fill-opacity:1;stroke:#000000;stroke-width:0.6;stroke-linecap:round;stroke-linejoin:bevel;stroke-miterlimit:4;stroke-dasharray:none;stroke-opacity:1"
       id="path8012" />
  </g>
  <g
     transform="matrix(1.385313,0,0,1.385313,372.4342,547.0755)"
     style="fill:#e0e0e0;fill-opacity:1;stroke:#000000;stroke-width:0.6;stroke-linejoin:bevel;stroke-miterlimit:4;stroke-dasharray:none;stroke-opacity:1"
     id="g8898">
    <path
       d="m 8.9,-9 h -7 v -3.25 H -3 l -4.25,1.75 v 1.85 l -1.6,1.15 0.05,5.15 1.3,1.6 h 3.65 V 0.5 L -5,1.5 v 4.25 h 1.25 v 4.75 l 2.5,1.75 v -7 L 1.9,0.5 4.4,-1 V -3.15 L 8.9,-9"
       style="fill:#e0e0e0;fill-opacity:1;stroke:#000000;stroke-width:0.6;stroke-linecap:round;stroke-linejoin:bevel;stroke-miterlimit:4;stroke-dasharray:none;stroke-opacity:1"
       id="path8900" />
  </g>
  <g
     transform="matrix(1.385313,0,0,1.385313,389.2606,552.5501)"
     style="fill:#e0e0e0;fill-opacity:1;stroke:#000000;stroke-width:0.6;stroke-linejoin:bevel;stroke-miterlimit:4;stroke-dasharray:none;stroke-opacity:1"
     id="g9786">
    <path
       d="M 5.95,-13.25 V -10 H 9.6 v -1.4 h 2.6 l 1.25,1.5 V -8 l -6.1,10.75 -3.5,1.6 v 5 l -11.9,3.9 h -3.25 v -1.4 L -8.65,9.5 h 3.6 l 4.25,-2 v -2 l -1,-1.15 h -3.6 v 1 h -4.75 L -13.4,3 V 1.25 l 3.15,-4.75 2.5,-1.5 v -2.15 l 4.5,-5.85 5.6,2.6 3.6,-2.85"
       style="fill:#e0e0e0;fill-opacity:1;stroke:#000000;stroke-width:0.6;stroke-linecap:round;stroke-linejoin:bevel;stroke-miterlimit:4;stroke-dasharray:none;stroke-opacity:1"
       id="path9788" />
  </g>
  <g
     transform="matrix(1.385313,0,0,1.385313,410.9751,549.5301)"
     style="fill:#e0e0e0;fill-opacity:1;stroke:#000000;stroke-width:0.6;stroke-linejoin:bevel;stroke-miterlimit:4;stroke-dasharray:none;stroke-opacity:1"
     id="g10674">
    <path
       d="m 6.65,-14.2 -8.9,6.5 v 1.9 l -6.1,10.75 -3.5,1.6 v 5 l 2.1,-4.1 h 2.15 l -1.5,2.5 2.35,1.85 h 10.5 l 6.5,2.4 V 10.45 L 11.9,8.7 H 9.5 L 8,3.55 v -1.6 h 0.9 v -10.9 l -2.25,-2 v -3.25"
       style="fill:#e0e0e0;fill-opacity:1;stroke:#000000;stroke-width:0.6;stroke-linecap:round;stroke-linejoin:bevel;stroke-miterlimit:4;stroke-dasharray:none;stroke-opacity:1"
       id="path10676" />
  </g>
  <g
     transform="matrix(1.385313,0,0,1.385313,439.622,538.5792)"
     style="fill:#e0e0e0;fill-opacity:1;stroke:#000000;stroke-width:0.6;stroke-linejoin:bevel;stroke-miterlimit:4;stroke-dasharray:none;stroke-opacity:1"
     id="g11562">
    <path
       d="M 14.05,-5.8 8.9,-8.55 v 1 l -5.5,1.25 -2.1,-2 h -1.75 v 7.4 L -2.2,0.35 H -4.1 L -7.7,-4.9 h -2.5 v -3.75 h 1.1 v -3.65 l -2.35,-4.25 -2.6,10.25 v 3.25 l 2.25,2 v 10.9 h -0.9 v 1.6 l 1.5,5.15 h 2.4 L -5.45,9.95 -1.6,7.1 V 5.45 L 2.05,2.6 h 5 l 2.5,2 3.85,-4.5 -1.1,-1.25 v -2 l 1.75,-2.65"
       style="fill:#e0e0e0;fill-opacity:1;stroke:#000000;stroke-width:0.6;stroke-linecap:round;stroke-linejoin:bevel;stroke-miterlimit:4;stroke-dasharray:none;stroke-opacity:1"
       id="path11564" />
  </g>
  <g
     transform="matrix(1.385313,0,0,1.385313,455.0001,553.5378)"
     style="fill:#e0e0e0;fill-opacity:1;stroke:#000000;stroke-width:0.6;stroke-linejoin:bevel;stroke-miterlimit:4;stroke-dasharray:none;stroke-opacity:1"
     id="g12450">
    <path
       d="m 2.3,-10.65 -3.85,4.5 v 1.5 H -5.2 V 6.1 h -1.1 v 2 l 2.85,2.6 h 2.4 L 1.8,7.85 5.05,0.95 H 6.3 v -3.5 l -1.5,-1.5 v -4.1 l -2.5,-2.5"
       style="fill:#e0e0e0;fill-opacity:1;stroke:#000000;stroke-width:0.6;stroke-linecap:round;stroke-linejoin:bevel;stroke-miterlimit:4;stroke-dasharray:none;stroke-opacity:1"
       id="path12452" />
  </g>
  <g
     transform="matrix(1.385313,0,0,1.385313,470.5276,527.7808)"
     style="fill:#e0e0e0;fill-opacity:1;stroke:#000000;stroke-width:0.6;stroke-linejoin:bevel;stroke-miterlimit:4;stroke-dasharray:none;stroke-opacity:1"
     id="g13338">
    <path
       d="m -5.25,-5.75 -8.15,5 L -8.25,2 -10,4.65 v 2 L -6.4,10.4 -5,8.9 V 6.65 l 6.65,-4.4 h 4.6 L 8.4,3.9 9.9,7.4 V 9.65 H 11 v -3.5 l 2.4,-1.5 V 3.5 H 10.75 V 0 h -1.6 l -5.65,-5.85 -8.75,-4.5 v 4.6"
       style="fill:#e0e0e0;fill-opacity:1;stroke:#000000;stroke-width:0.6;stroke-linecap:round;stroke-linejoin:bevel;stroke-miterlimit:4;stroke-dasharray:none;stroke-opacity:1"
       id="path13340" />
  </g>
  <g
     transform="matrix(1.385313,0,0,1.385313,443.5187,519.0353)"
     style="fill:#e0e0e0;fill-opacity:1;stroke:#000000;stroke-width:0.6;stroke-linejoin:bevel;stroke-miterlimit:4;stroke-dasharray:none;stroke-opacity:1"
     id="g14226">
    <path
       d="m 1.6,-12.25 -1.75,1.85 H -2 v -1.5 h -3.9 l -2.35,-2.6 H -9.4 l -1.5,3.6 h -1.85 l -1.5,3 v 5.5 l 2.35,4.25 V 5.5 H -13 v 3.75 h 2.5 l 3.6,5.25 H -5 l 1.75,-1.25 v -7.4 h 1.75 l 2.1,2 5.5,-1.25 v -1 l 8.15,-5 V -4 l -5.15,-2.25 -3,-4.4 -4.5,-1.6"
       style="fill:#e0e0e0;fill-opacity:1;stroke:#000000;stroke-width:0.6;stroke-linecap:round;stroke-linejoin:bevel;stroke-miterlimit:4;stroke-dasharray:none;stroke-opacity:1"
       id="path14228" />
  </g>
  <g
     transform="matrix(1.385313,0,0,1.385313,471.1074,504.9548)"
     style="fill:#e0e0e0;fill-opacity:1;stroke:#000000;stroke-width:0.6;stroke-linejoin:bevel;stroke-miterlimit:4;stroke-dasharray:none;stroke-opacity:1"
     id="g15114">
    <path
       d="M 17.45,-2.55 V 4.1 L 18.2,5.35 V 7.7 h -4.15 v 2.75 l -3.6,2.65 v 3.35 H 8.85 L 3.2,10.6 -10.7,3.85 l -3,-4.4 -4.5,-1.6 v -2.5 l 1.15,-3 h 2.15 l 4,-3.15 h 2.25 v -2.6 l 3.1,-3.05 10,3.05 h 3.5 l 2.4,-1 5.35,11.85 h 1.75"
       style="fill:#e0e0e0;fill-opacity:1;stroke:#000000;stroke-width:0.6;stroke-linecap:round;stroke-linejoin:bevel;stroke-miterlimit:4;stroke-dasharray:none;stroke-opacity:1"
       id="path15116" />
  </g>
  <g
     transform="matrix(1.385313,0,0,1.385313,501.6964,544.2055)"
     style="fill:#e0e0e0;fill-opacity:1;stroke:#000000;stroke-width:0.6;stroke-linejoin:bevel;stroke-miterlimit:4;stroke-dasharray:none;stroke-opacity:1"
     id="g16002">
    <path
       d="M 4.2,-2.4 -1.4,1.35 V 4.1 l -2.4,2.25 h -2.5 l -2.25,-4 h 3.15 l -1.9,-2 1,-2 -1.25,-1 v -2.5 l 2.15,-1.2 v 1.45 h 4.1 v -1 H 3.35 L 8.6,-3.75 4.2,-2.4"
       style="fill:#e0e0e0;fill-opacity:1;stroke:#000000;stroke-width:0.6;stroke-linecap:round;stroke-linejoin:bevel;stroke-miterlimit:4;stroke-dasharray:none;stroke-opacity:1"
       id="path16004" />
  </g>
  <g
     transform="matrix(1.385313,0,0,1.385313,507.8742,524.6525)"
     style="fill:#e0e0e0;fill-opacity:1;stroke:#000000;stroke-width:0.6;stroke-linejoin:bevel;stroke-miterlimit:4;stroke-dasharray:none;stroke-opacity:1"
     id="g16890">
    <path
       d="M 3.05,-5.05 0.9,-4 H -2.9 L -8.35,0.55 V 1.7 l -3.4,2.6 v 2.15 h 1.9 V 9.3 h 4.1 v -1 H -1.1 L 4.15,10.45 6.3,8.45 7.05,6.2 V 3.05 h -1 V -0.3 l 2.6,-4.9 3.15,-2.85 -3.65,-2.4 h -2.6 l -2.5,5.4"
       style="fill:#e0e0e0;fill-opacity:1;stroke:#000000;stroke-width:0.6;stroke-linecap:round;stroke-linejoin:bevel;stroke-miterlimit:4;stroke-dasharray:none;stroke-opacity:1"
       id="path16892" />
  </g>
  <g
     transform="matrix(1.385313,0,0,1.385313,510.5957,500.2059)"
     style="fill:#e0e0e0;fill-opacity:1;stroke:#000000;stroke-width:0.6;stroke-linejoin:bevel;stroke-miterlimit:4;stroke-dasharray:none;stroke-opacity:1"
     id="g17778">
    <path
       d="M -18.15,-10.95 -12.8,0.9 h 1.75 v 6.65 l 0.75,1.25 h 2.25 l 3.75,3.25 v 1.1 l -0.55,0.45 h 3.8 L 1.1,12.55 3.6,7.15 H 6.2 L 9.85,9.55 13.1,7.4 h 5.1 V 5.9 L 6.85,0.4 H 2.2 L -5.55,-3.1 -7.8,-5.35 v -4.85 l -5.1,-3.4 -5.25,2.65"
       style="fill:#e0e0e0;fill-opacity:1;stroke:#000000;stroke-width:0.6;stroke-linecap:round;stroke-linejoin:bevel;stroke-miterlimit:4;stroke-dasharray:none;stroke-opacity:1"
       id="path17780" />
  </g>
  <path
     d="m 524.05953,469.90511 v 7.61922 l -1.87018,1.52386 v 7.96552 l 11.84442,20.57192 -13.92239,-6.71877 h -6.44171 l -10.73618,-4.8486 -3.11696,-3.11694 v -6.71878 l -7.06508,-4.71007 10.38983,-5.88758 3.11696,0.34634 3.8096,-4.98714 v -20.64117 h -1.03897 v -2.8399 l 3.8096,3.18623 h 5.54126 l 4.29447,-3.25548 h 4.01741 l 5.19492,3.60181 v 2.77064 c -4.06357,5.40272 -6.67258,10.78233 -7.827,16.13889"
     style="fill:#e0e0e0;fill-opacity:1;stroke:#000000;stroke-width:0.831188;stroke-linecap:round;stroke-linejoin:bevel;stroke-miterlimit:4;stroke-dasharray:none;stroke-opacity:1"
     id="path18668" />
  <path
     d="m 519.90356,488.39903 5.54128,9.00454 0.20778,2.77064 -2.07795,-1.73164 -3.67111,-6.23392 v -3.80962 m 0.55414,9.55868 -4.0174,-7.82703 -4.29449,-2.4243 -0.0693,1.59311 1.93942,1.73165 -1.87017,2.21651 -4.36372,-2.42431 v 1.93943 l 8.17334,3.94815 4.50227,1.24679"
     style="fill:#e0e0e0;fill-opacity:1;stroke:#000000;stroke-width:0.831188;stroke-linejoin:bevel;stroke-miterlimit:4;stroke-dasharray:none;stroke-opacity:1"
     id="path18670" />
  <path
     d="m 338.48297,517.64466 -13.64535,10.18206 h -2.9784 v 1.73163 l 2.77061,2.97843 v 9.83573 h -1.73164 v 8.31188 l 1.59311,4.0174 6.71878,3.6018 h 1.38531 l 1.3853,-2.90914 h 9.00455 l 6.58023,-9.6972 v -7.27289 l -2.4243,-4.84859 2.6321,-4.36375 v -5.33346 l -2.14723,-3.39401 -2.2165,-0.0693 -0.20781,-3.60179 -2.35502,-3.67108 h -4.36374 v 4.50225"
     style="fill:#e0e0e0;fill-opacity:1;stroke:#000000;stroke-width:0.831188;stroke-linecap:round;stroke-linejoin:bevel;stroke-miterlimit:4;stroke-dasharray:none;stroke-opacity:1"
     id="path21305" />
  <path
     d="m 338.82931,525.05609 4.0174,5.88757 v 2.77064 l -4.50228,2.07796 -5.0564,4.15595 v 1.93944 h -3.6018 l -3.46329,7.61921 v -5.88757 l 1.73165,-3.32475 v -2.77065 l 4.84858,-5.33344 0.13854,-5.88758 5.8876,-3.80961 v 2.56283"
     style="fill:#e0e0e0;fill-opacity:1;stroke:#000000;stroke-width:0.831188;stroke-linejoin:bevel;stroke-miterlimit:4;stroke-dasharray:none;stroke-opacity:1"
     id="path21307" />
  <g
     transform="matrix(1.385313,0,0,1.385313,371.8538,519.6203)"
     style="fill:#e0e0e0;fill-opacity:1;stroke:#000000;stroke-width:0.6;stroke-linejoin:bevel;stroke-miterlimit:4;stroke-dasharray:none;stroke-opacity:1"
     id="g23940">
    <path
       d="m 0.25,-13.45 -4,-4 h -2.4 v 2.5 l 2.65,3 v 1.85 L -6,-8.45 h -12 l -2.95,3.75 1.7,2.65 0.15,2.6 1.6,0.05 1.55,2.45 V 6.9 l -1.9,3.15 1.75,3.5 1.75,-1.9 h 2.15 l 1.35,1.4 v 2.85 h 1.15 l 1.3,1.55 -0.05,-5.15 1.6,-1.15 V 9.3 L -2.6,7.55 h 4.9 v 3.25 h 7 l 5.6,2.6 3.6,-2.85 L 20,8.9 21,5.8 V 1.4 h -2.4 l -1.25,-1.85 v -3.9 l -2.9,-2 -6.2,3 h -3.9 l -1.6,-1.35 2.6,-2.65 v -4.6 l -1.1,-1.5 h -4"
       style="fill:#e0e0e0;fill-opacity:1;stroke:#000000;stroke-width:0.6;stroke-linecap:round;stroke-linejoin:bevel;stroke-miterlimit:4;stroke-dasharray:none;stroke-opacity:1"
       id="path23942" />
  </g>
  <g
     transform="matrix(1.385313,0,0,1.385313,381.5025,495.1731)"
     style="fill:#e0e0e0;fill-opacity:1;stroke:#000000;stroke-width:0.6;stroke-linejoin:bevel;stroke-miterlimit:4;stroke-dasharray:none;stroke-opacity:1"
     id="g24828">
    <path
       d="m 12.35,-8.35 v -3.9 h -2 L 7,-14.25 H -0.35 L -4,-10.6 -5.25,-7.75 h -1.9 v -2.6 h -2.5 l -1.75,1.1 0.65,0.5 v 3.15 l -2.3,3.85 v 1.9 h 2.4 l 4,4 h 4 l 1.1,1.5 v 4.6 l -2.6,2.65 1.6,1.35 h 3.9 l 6.2,-3 -2.85,-2 v -1.1 l 2,-2.4 H 9.2 L 13.1,0 10.5,-3.6 12.35,-8.35"
       style="fill:#e0e0e0;fill-opacity:1;stroke:#000000;stroke-width:0.6;stroke-linecap:round;stroke-linejoin:bevel;stroke-miterlimit:4;stroke-dasharray:none;stroke-opacity:1"
       id="path24830" />
  </g>
  <g
     transform="matrix(1.385313,0,0,1.385313,416.8653,491.8193)"
     style="fill:#e0e0e0;fill-opacity:1;stroke:#000000;stroke-width:0.6;stroke-linejoin:bevel;stroke-miterlimit:4;stroke-dasharray:none;stroke-opacity:1"
     id="g25716">
    <path
       d="m 12.3,-34 -5.65,6.9 h -6.5 l -1.5,-2.25 h -5 v 3.1 l -1.95,2.15 v 6.25 l -4.9,8.1 v 3.9 l -1.85,4.75 2.6,3.6 -3.9,5.75 h -2.5 l -2,2.4 v 1.1 l 5.75,4 v 3.9 l 1.25,1.85 h 2.4 v 4.4 l -1,3.1 -1.5,1.65 v 3.25 h 3.65 v -1.4 h 2.6 l 1.25,1.5 8.9,-6.5 2.6,-10.25 v -5.5 l 1.5,-3 H 8.4 l 1.5,-3.6 h 1.15 l 2.35,2.6 h 3.9 v 1.5 h 1.85 L 20.9,7.4 V 4.9 L 18.4,3 V 1 l -1,-1 v -5.75 l 1.4,-1 V -8.6 l -1.65,-2.5 h -4.6 l -1.9,-2.25 v -2.5 l 1.4,-2 2.75,-2.25 v -1.65 h 2.6 L 19.55,-23 v -1.35 h -1 v -3.9 l -1.5,-1.6 v -2.9 L 15.15,-34 H 12.3"
       style="fill:#e0e0e0;fill-opacity:1;stroke:#000000;stroke-width:0.6;stroke-linecap:round;stroke-linejoin:bevel;stroke-miterlimit:4;stroke-dasharray:none;stroke-opacity:1"
       id="path25718" />
  </g>
  <g
     transform="matrix(1.385313,0,0,1.385313,490.7594,460.9657)"
     style="fill:#e0e0e0;fill-opacity:1;stroke:#000000;stroke-width:0.6;stroke-linejoin:bevel;stroke-miterlimit:4;stroke-dasharray:none;stroke-opacity:1"
     id="g26604">
    <path
       d="m 8.25,-16.2 c 1.2333333,0.566667 2.45,1.116667 3.65,1.65 l 1.25,2.75 v 4.1 H 13.9 V 7.2 L 11.15,10.8 8.9,10.55 -3.85,17.45 -6.5,15.7 h -4.25 l -2.5,-2.5 v -2.65 l 2.4,-4.6 v -1.5 l -2.9,-1 V -2.7 l 1.5,-1.1 -1.6,-1 V -7.95 L -2.5,-14.3 h 1.4 l 3,-3.15 H 4 l 4.25,1.25"
       style="fill:#e0e0e0;fill-opacity:1;stroke:#000000;stroke-width:0.6;stroke-linecap:round;stroke-linejoin:bevel;stroke-miterlimit:4;stroke-dasharray:none;stroke-opacity:1"
       id="path26606" />
  </g>
  <g
     transform="matrix(1.385313,0,0,1.385313,494.9692,424.8632)"
     style="fill:#e0e0e0;fill-opacity:1;stroke:#000000;stroke-width:0.6;stroke-linejoin:bevel;stroke-miterlimit:4;stroke-dasharray:none;stroke-opacity:1"
     id="g27492">
    <path
       d="m 382.8125,8.75 v 3.84375 l -2,2.65625 v 3.34375 L 379.0625,21 v 4.09375 h 4.25 l 4.625,-1.25 2.75,-3.84375 2,2 0.15625,8.0625 -3.125,5.75 -1.59375,-2.21875 -2.46875,0.0625 L 385.5,32.09375 382.9375,29.75 381,31.875 V 34.5 l 1.1875,-0.09375 V 35.75 l -1.90625,1.90625 -1.8125,-0.03125 c -1.21526,-3.464602 -2.23423,-7.323913 -2.625,-12.4375 l -2.34375,-2.625 -1.5,2.34375 -2.0625,0.03125 -3.65625,-4.53125 0.15625,4.96875 -1.65625,1.5625 2.5625,3.90625 -2.1875,7.25 -3.625,2.46875 -4.3125,0.03125 0.0937,2.09375 -3.09375,2.46875 L 354.25,47 l 2.78125,2.65625 0.0312,3.46875 5.21875,0.03125 1.5,-1.4375 4.6875,-0.09375 1.75,1.5625 5.375,-0.09375 0.34375,-0.25 -0.34375,0.28125 2.25,1.75 1.25,5.09375 v 4.75 l 2.09375,5.5 h 1.59375 V 70.375 l 0.0625,-0.03125 v 10.875 l -3.40625,6.75 v 6.25 l 2.40625,3.25 v 9.59375 l -4.125,4.59375 1.5,6.25 -1.375,3 v 2.90625 l 1.125,1.25 v 1.09375 l -3.75,8.75 0.375,5.0625 v 0 l -1.09375,1.125 h -2 l -1.125,1.25 v 4.5 h -0.0312 l -3.15625,5.25 -1.34375,1.25 h -2.90625 l -6.875,-2.125 h -3.71875 l -3.40625,4.625 v 4.5 h -4.75 l -1.5,1.5 h -3.25 l -1.25,0.8125 v 5.0625 l -1.25,0.25 v 4.5 h 1.25 l 1.40625,5.125 v 4.375 l 3.15625,1 11.34375,-6.375 H 356.5 l 3,-3.125 h 2.09375 l 4.25,1.25 1.8125,0.78125 h 0.0312 l 1.84375,0.84375 1.25,2.75 v 2.0625 l 2.75,2.28125 h 4 l 3.09375,-2.34375 h 2.90625 l 3.75,2.59375 -0.0312,-3.34375 h 3.625 v -6.25 l 2,-4.90625 v -10.75 l -1,-4.59375 -3.25,-9.90625 v -5.5 l -0.0312,-0.0312 2.125,-5.25 2.09375,-2.25 v -3 h 3.15625 v -2.09375 h 4.5 l 3.375,3.09375 v 2.5 l 1.75,-1.25 h 1.75 l -3,-4.5 v -3.59375 h 1.375 v -1 l -1.125,-1.15625 v -2.59375 h -1.75 v -1.40625 l 2,-1.34375 v -3.25 l 3.125,-3 v -3.40625 l 1.125,-1.34375 h 2 l 2.875,-1.5 v -3.25 l 2.625,-2.9375 -1.15625,-1.25 V 92.9688 l 1.75,-1.25 h -2.25 l 1.5,-4 h 1.25 v -2 l 1.5,-1.75 V 81.875 l -1.5,-1.90625 h -2.34375 v -2.75 h 1.5 V 71.375 l -1.65625,-1.90625 v -3.25 h -1.75 l -1.84375,-1.75 v -2 h 1 V 60.875 l -2,-1.40625 v -3.25 l -5.15625,-6.59375 -0.0312,0.0625 -2.3125,-2.65625 h -2.25 l -3.375,-7 -0.0312,-3.75 -1.125,-3.71875 -0.15625,-6 1.25,-1.5625 v -7.65625 h 0.90625 v -4.25 h -1.375 l -2.5,2.40625 h -3.875 l -1.375,-2.5 -3.75,-1.65625 z"
       transform="translate(-360.6508,-164.906)"
       style="fill:#e0e0e0;fill-opacity:1;stroke:#000000;stroke-width:0.6;stroke-linecap:round;stroke-linejoin:bevel;stroke-miterlimit:4;stroke-dasharray:none;stroke-opacity:1"
       id="path27494" />
  </g>
  <g
     transform="matrix(1.385313,0,0,1.385313,522.1741,419.5143)"
     style="fill:#e0e0e0;fill-opacity:1;stroke:#000000;stroke-width:0.6;stroke-linejoin:bevel;stroke-miterlimit:4;stroke-dasharray:none;stroke-opacity:1"
     id="g28380" />
  <g
     transform="matrix(1.385313,0,0,1.385313,498.7178,374.9794)"
     style="fill:#e0e0e0;fill-opacity:1;stroke:#000000;stroke-width:0.6;stroke-linejoin:bevel;stroke-miterlimit:4;stroke-dasharray:none;stroke-opacity:1"
     id="g29268">
    <path
       d="m 363.96875,51.59375 -1.40625,1.59375 h -5.59375 l 2.09375,2.25 v 7.5 L 355.09375,70 h -4.125 v 3.4375 l 1.59375,1.40625 h 1.90625 v -1.5 h 3.75 l 1.59375,2.09375 1.15625,7.15625 v 3.59375 l -1.90625,7.65625 -2.84375,2.5 v 6.5 l -1.0625,4.34375 -1,5.15625 -6.59375,7.75 v 2.59375 l 5.84375,3.40625 v 3.84375 h 1.75 l 3,3.65625 -2.25,1.75 h -2.5 l -1.75,1.84375 v 5.90625 l -1.75,4.09375 3.40625,4 H 357 l 6.90625,2.15625 h 2.90625 l 1.34375,-1.25 3.15625,-5.25 v -4.5 l 1.09375,-1.25 h 2 L 375.5625,140 l -0.40625,-5.0625 3.75,-8.75 v -1.09375 l -1.09375,-1.25 v -2.90625 l 1.34375,-3 -1.5,-6.25 4.15625,-4.59375 V 97.4375 l -2.40625,-3.25 v -6.25 l 3.40625,-6.75 v -11 h -1.65625 l -2.09375,-5.5 v -4.75 l -1.25,-5.09375 -2.25,-1.75 h -5.5 l -1.25,-1.5 z"
       transform="translate(-363.357,-128.897)"
       style="fill:#e0e0e0;fill-opacity:1;stroke:#000000;stroke-width:0.6;stroke-linecap:round;stroke-linejoin:bevel;stroke-miterlimit:4;stroke-dasharray:none;stroke-opacity:1"
       id="path29270" />
  </g>
  <g
     transform="matrix(1.385313,0,0,1.385313,541.9424,362.47)"
     style="fill:#e0e0e0;fill-opacity:1;stroke:#000000;stroke-width:0.6;stroke-linejoin:bevel;stroke-miterlimit:4;stroke-dasharray:none;stroke-opacity:1"
     id="g30156" />
  <g
     transform="matrix(1.385313,0,0,1.385313,503.5667,309.8542)"
     style="fill:#e0e0e0;fill-opacity:1;stroke:#000000;stroke-width:0.6;stroke-linejoin:bevel;stroke-miterlimit:4;stroke-dasharray:none;stroke-opacity:1"
     id="g31044" />
  <g
     transform="matrix(1.385313,0,0,1.385313,545.8756,309.1409)"
     style="fill:#e0e0e0;fill-opacity:1;stroke:#000000;stroke-width:0.6;stroke-linejoin:bevel;stroke-miterlimit:4;stroke-dasharray:none;stroke-opacity:1"
     id="g32826" />
  <g
     transform="matrix(1.385313,0,0,1.385313,521.5674,251.01039)"
     style="fill:#e0e0e0;fill-opacity:1;stroke:#000000;stroke-width:0.6;stroke-linejoin:bevel;stroke-miterlimit:4;stroke-dasharray:none;stroke-opacity:1"
     id="g31932">
    <g
       transform="translate(6.451983,6.273569)"
       style="fill:#e0e0e0;fill-opacity:1;stroke:#000000;stroke-linejoin:bevel;stroke-opacity:1"
       id="g36333">
      <path
         d=""
         style="fill:#e0e0e0;fill-opacity:1;stroke:#000000;stroke-width:0.01;stroke-linejoin:bevel;stroke-opacity:1"
         id="path36339" />
    </g>
  </g>
  <path
     d="m 527.36384,268.30727 h -2.54114 l -0.98194,-1.50367 1.01807,-1.50366 3.54809,1.15245 z"
     style="display:inline;fill:#e0e0e0;fill-opacity:1;stroke:#000000;stroke-width:0.831188;stroke-linejoin:bevel;stroke-miterlimit:4;stroke-dasharray:none;stroke-opacity:1"
     id="path3370" />
  <g
     transform="matrix(1.385313,0,0,1.385313,569.9725,128.94013)"
     style="display:inline;fill:#e0e0e0;fill-opacity:1;stroke:#000000;stroke-width:0.59986443;stroke-linejoin:bevel;stroke-miterlimit:4;stroke-dasharray:none;stroke-opacity:1"
     id="g2338">
    <path
       d="m -32.47709,30.681686 c 4.871734,-3.495681 13.112693,-19.028136 27.2305053,-8.951132 0.5498799,0.974119 1.6853278,1.69728 4.35605208,1.762466 3.33783262,4.092339 6.06640382,5.13837 8.81165492,6.267801 4.0365627,2.605116 8.9863777,3.960877 13.0229407,4.847611 4.337914,0.952934 4.648425,4.639335 8.684988,6.344002 1.940895,-0.532278 -0.976188,-3.458635 1.468387,-4.022727 1.354898,-0.655091 0.661649,-6.985195 -1.179446,-8.684976 1.378086,-3.880396 6.367733,-13.067887 9.25578,-16.434861 3.09579,-3.6091686 12.305176,-12.02893452 17.465629,-12.03747376 11.695176,-0.18990487 7.865049,3.30516886 11.797573,1.48510496 -4.883875,-6.2875362 8.605934,-7.4986281 1.11287,-3.6549363 1.22248,1.73116782 3.520661,0.5952821 5.026355,0.9103785 3.408975,-3.6962895 1.271123,-7.2342466 5.205604,-5.297877 0.852121,-0.7112421 -0.15148,-4.1860094 8.117776,-2.615164 -2.663199,-4.3671734 8.109673,-6.1397704 6.245395,-8.9386154 -5.669625,0.402125 -6.049202,5.141424 -9.562536,4.720782 -1.698329,-0.162131 -3.310018,1.556391 -5.592955,-9.683395 2.702509,0.231644 6.802919,-1.122677 -2.282356,-2.494838 -5.268086,-1.515543 -2.012146,-13.502265 0.638508,-15.506185 1.754124,-5.156247 2.838356,-9.815833 1.696268,-10.574647 -1.355064,1.17519 -5.756876,8.287667 -9.035269,11.097122 -3.222572,2.761619 -2.477681,5.633523 -4.94843,5.814362 -8.626317,1.414892 -12.856328,-1.300893 -14.245729,-5.835231 -4.501755,-0.285246 1.779086,0.692332 -1.331858,-0.16254 0.878787,1.515628 -2.893627,7.689945 -2.07437,-0.07549 -0.777706,-1.798905 -0.117378,0.149705 -3.746974,-0.496425 -1.545975,4.15075 -10.649815,-0.178834 -6.426881,-1.566966 -7.9128,-1.522268 -13.929931,-8.651944 -19.506533,-10.748222 -8.4510652,-8.303023 -15.217452,-19.221568 -25.0321465,-29.346931 -1.9858507,-2.644601 -4.2848295,-4.454195 -7.1818465,-4.669017 0.57063,3.476009 -4.561373,1.216707 -7.603965,10.206018 4.745269,12.428179 7.565274,18.77228 6.038626,23.420656 0.947165,5.077396 -1.542743,8.591625 -2.407646,9.614376 -2.041985,2.414655 1.890481,8.503017 0.212761,12.328519 4.494946,-2.687688 2.621476,6.432056 -3.027613,4.657432 -6.818301,4.176692 -4.189211,4.357903 -4.77403,6.137307 0.588588,1.588617 0.668879,4.193827 2.078975,4.139428 -3.046,1.554759 2.105101,4.201315 0.782196,10.1704261 -5.130663,6.53206502 -4.606734,7.11456218 -9.944806,5.0493412 0.887367,-4.1443483 -3.525145,-0.010938 -6.45455,-0.2044655 -1.020358,-0.9502418 -6.156691,-4.7027427 -8.071838,-6.0969485 -1.17002,0.1476913 0.796852,2.4994137 -3.640396,1.6600504 -3.194351,5.82106863 1.972064,5.80913426 5.196554,12.1740883 -1.984417,0.8798821 -4.469311,1.2786307 -5.788523,8.387228 -2.781885,0.24813 -1.559163,-3.351745 -4.179366,-1.836348 0.520603,5.719 -5.796252,4.049161 -8.828282,7.952102 3.193234,11.268266 -3.259328,9.168241 -0.605246,13.619576 1.469915,2.248425 3.4766,-0.512463 3.687242,4.155963 4.045411,1.534889 5.421536,3.714826 6.428138,6.51063 0.781569,2.73176 -0.618539,4.550744 -1.360048,6.480324 -3.018108,4.914859 -1.958284,9.247156 -0.807983,13.566528 5.671354,-1.761729 6.433469,2.28057 5.653022,0.32503 -0.772813,-7.39033 6.915975,0.99643 5.277413,-11.243444 2.745129,-0.0061 4.896297,-1.183492 4.616757,-5.420985 l 3.329254,2.999098 c 3.593181,-1.2255 5.918139,0.08545 8.006293,1.870001 1.323598,-1.431822 2.613742,-2.780006 4.528149,-5.68885 l -5.985568,-3.337428 c -1.220396,-3.098711 -4.77211,-4.86524 -8.041157,-6.793294 l -3.746738,0.950493 c -2.382843,-1.832767 -4.084746,-4.346474 -7.861337,-4.785493 0.364556,-2.420952 1.038375,-13.54571 7.261489,-11.63475 5.853585,-3.875167 5.189922,2.025539 7.705699,3.157085 1.42102,2.342312 2.645738,7.236537 4.337568,6.058321 z"
       style="opacity:1;fill:#e0e0e0;fill-opacity:1;stroke:#000000;stroke-width:0.59986443;stroke-linecap:round;stroke-linejoin:bevel;stroke-miterlimit:4;stroke-dasharray:none;stroke-opacity:1"
       id="path2340" />
    <g
       transform="translate(6.451983,6.273569)"
       style="fill:#e0e0e0;fill-opacity:1;stroke:#000000;stroke-linejoin:bevel;stroke-opacity:1;stroke-width:0.59986443;stroke-miterlimit:4;stroke-dasharray:none"
       id="g2342">
      <path
         d=""
         style="fill:#e0e0e0;fill-opacity:1;stroke:#000000;stroke-width:0.59986443;stroke-linejoin:bevel;stroke-opacity:1;stroke-miterlimit:4;stroke-dasharray:none"
         id="path2346" />
    </g>
  </g>
  <g
     transform="matrix(1.385313,0,0,1.385313,739.2973,139.65273)"
     style="display:inline;fill:#e0e0e0;fill-opacity:1;stroke:#000000;stroke-width:0.6;stroke-linejoin:bevel;stroke-miterlimit:4;stroke-dasharray:none;stroke-opacity:1"
     id="g3239">
    <path
       d="m -26.835,-60.076115 c 1.003563,-3.185677 0.998631,-6.439384 4.072371,-8.146363 2.169543,0.1883 2.553474,1.567008 2.940564,2.94361 11.5187694,1.21166 5.090363,-3.223778 8.679137,-1.840574 -2.191534,8.027693 -2.272426,-0.705522 -6.764312,7.634427 -6.483902,-0.728488 -5.225616,5.34965 -9.023098,5.071249 -1.947369,2.741925 -0.07889,6.281266 -3.050685,5.145591 0.0305,6.568818 -2.359643,3.740124 -3.974341,5.391402 -3.047404,0.125556 -0.683903,6.975784 -1.612924,8.505958 -0.486477,-1.824359 -1.588727,-2.725059 -3.897224,-1.816387 l -1.185834,-3.8715 c 2.020171,-4.180939 3.995459,-3.818117 8.336284,-8.765679 -0.03151,-0.96635 0.782074,-4.175532 2.484279,-5.674879 0.446762,-2.219575 1.321395,-2.41897 2.995783,-4.576855 z"
       style="fill:#e0e0e0;fill-opacity:1;stroke:#000000;stroke-width:0.6;stroke-linecap:round;stroke-linejoin:bevel;stroke-miterlimit:4;stroke-dasharray:none;stroke-opacity:1"
       id="path3241" />
  </g>
  <path
     d="m 731.68672,77.4432 c 1.13165,-0.33419 2.74605,-3.27073 4.5849,-3.27073 1.96983,0.48612 1.46991,3.08305 3.76966,4.18524 -2.03863,-0.49092 -4.81324,2.79227 -5.15127,3.47055 -2.45891,1.78955 -4.3865,6.612141 -7.40572,0.58231 -0.33469,-1.33885 -0.43272,-1.11536 -0.43272,-2.53762 0,-1.6152 3.25649,-1.74042 4.63515,-2.42975 z"
     style="display:inline;fill:#e0e0e0;fill-opacity:1;fill-rule:evenodd;stroke:#000000;stroke-width:0.831188;stroke-linecap:butt;stroke-linejoin:miter;stroke-miterlimit:4;stroke-dasharray:none;stroke-opacity:1"
     id="path5015" />
  <path
     d="m 530.90565,26.82214 c -1.19937,2.11496 -11.97951,0.71165 -5.15002,-6.22517 4.5067,-0.52196 5.88955,2.77688 5.15002,6.22517 z"
     style="display:inline;fill:#e0e0e0;fill-opacity:1;fill-rule:evenodd;stroke:#000000;stroke-width:0.831188;stroke-linecap:butt;stroke-linejoin:miter;stroke-miterlimit:4;stroke-dasharray:none;stroke-opacity:1"
     id="path4249" />
  <path
     d="m 520.35647,18.99659 c -1.19937,2.11496 -4.70495,-8.61877 -0.0895,-8.43917 1.97642,2.79904 1.46156,7.52116 0.0895,8.43917 z"
     style="display:inline;fill:#e0e0e0;fill-opacity:1;fill-rule:evenodd;stroke:#000000;stroke-width:0.831188;stroke-linecap:butt;stroke-linejoin:miter;stroke-miterlimit:4;stroke-dasharray:none;stroke-opacity:1"
     id="path5136" />
  <path
     d="m 710.98762,98.913037 c 1.13165,-0.33419 -2.6308,-4.061444 -0.79195,-4.061444 1.96983,0.48612 4.7909,-0.870517 4.71851,0.706101 -0.53047,0.654677 -0.41018,1.471712 0.22558,2.363552 -2.70107,2.152794 -3.21859,-0.753784 -3.92658,3.745164 -1.43207,0.49011 -2.99834,1.47382 -2.963,-0.007 0.0385,-1.61474 1.35878,-2.056706 2.73744,-2.746036 z"
     style="display:inline;fill:#e0e0e0;fill-opacity:1;fill-rule:evenodd;stroke:#000000;stroke-width:0.831188;stroke-linecap:butt;stroke-linejoin:miter;stroke-miterlimit:4;stroke-dasharray:none;stroke-opacity:1"
     id="path9953" />
  <path
     d="m 705.8029,101.9996 c -2.14371,0.64825 -3.86812,-0.74018 -3.35835,-2.221337 3.88003,-0.993415 3.17457,1.571137 3.35835,2.221337 z"
     style="display:inline;fill:#e0e0e0;fill-opacity:1;fill-rule:evenodd;stroke:#000000;stroke-width:0.831188;stroke-linecap:butt;stroke-linejoin:miter;stroke-miterlimit:4;stroke-dasharray:none;stroke-opacity:1"
     id="path10840" />
  <path
     d="m 719.94842,90.591912 c -1.43207,0.252899 -3.39369,0.05054 -2.88392,-1.430622 1.58696,-1.942271 3.33271,0.22692 2.88392,1.430622 z"
     style="display:inline;fill:#e0e0e0;fill-opacity:1;fill-rule:evenodd;stroke:#000000;stroke-width:0.831188;stroke-linecap:butt;stroke-linejoin:miter;stroke-miterlimit:4;stroke-dasharray:none;stroke-opacity:1"
     id="path10842" />
  <path
     d="m 465.23749,177.41153 c 1.96983,0.48612 3.48273,-2.61996 5.78248,-1.51777 1.08805,2.7792 -3.14899,0.33431 -1.68473,8.27897 -2.45891,1.78955 -1.47908,3.03379 -4.27465,1.36508 -1.4245,-3.61177 -0.18926,-5.55436 0.1769,-8.12628 z"
     style="display:inline;fill:#e0e0e0;fill-opacity:1;fill-rule:evenodd;stroke:#000000;stroke-width:0.831188;stroke-linecap:butt;stroke-linejoin:miter;stroke-miterlimit:4;stroke-dasharray:none;stroke-opacity:1"
     id="path7264" />
  <circle
     style="fill:#ff0005;fill-opacity:1;stroke:#000000;stroke-width:0.831;stroke-miterlimit:4;stroke-dasharray:none;stroke-opacity:1"
     id="path1944"
     cx="310.59503"
     cy="581.64062"
     r="14.237803" />
  <text
     xml:space="preserve"
     style="font-style:normal;font-weight:normal;font-size:40px;line-height:1.25;font-family:sans-serif;fill:#000000;fill-opacity:1;stroke:#000000;stroke-opacity:1"
     x="372.29218"
     y="642.28314"
     id="text2832"><tspan
       sodipodi:role="line"
       id="tspan2830"
       x="372.29218"
       y="642.28314"
       style="font-style:normal;font-variant:normal;font-weight:bold;font-stretch:normal;font-family:robo;-inkscape-font-specification:'robo Bold';fill:#ff0000;fill-opacity:1;stroke:#000000;stroke-opacity:1">OSAKA</tspan></text>
</svg>
