<?xml version="1.0" encoding="UTF-8" standalone="no"?>
<!-- Created with Inkscape (http://www.inkscape.org/) -->

<svg
   width="158.75mm"
   height="81.864594mm"
   viewBox="0 0 158.75 81.86459"
   version="1.1"
   id="svg5"
   inkscape:version="1.1.1 (3bf5ae0d25, 2021-09-20)"
   sodipodi:docname="shadow_mask.svg"
   xmlns:inkscape="http://www.inkscape.org/namespaces/inkscape"
   xmlns:sodipodi="http://sodipodi.sourceforge.net/DTD/sodipodi-0.dtd"
   xmlns="http://www.w3.org/2000/svg"
   xmlns:svg="http://www.w3.org/2000/svg">
  <sodipodi:namedview
     id="namedview7"
     pagecolor="#ffffff"
     bordercolor="#666666"
     borderopacity="1.0"
     inkscape:pageshadow="2"
     inkscape:pageopacity="0.0"
     inkscape:pagecheckerboard="0"
     inkscape:document-units="mm"
     showgrid="false"
     fit-margin-top="0"
     fit-margin-left="0"
     fit-margin-right="0"
     fit-margin-bottom="0"
     inkscape:zoom="3.0289001"
     inkscape:cx="439.92867"
     inkscape:cy="122.81686"
     inkscape:window-width="3840"
     inkscape:window-height="2036"
     inkscape:window-x="-12"
     inkscape:window-y="-12"
     inkscape:window-maximized="1"
     inkscape:current-layer="layer1"
     inkscape:snap-global="false"
     inkscape:snap-bbox="true" />
  <defs
     id="defs2" />
  <g
     inkscape:label="Layer 1"
     inkscape:groupmode="layer"
     id="layer1"
     transform="translate(-19.857941,-8.4677048)">
    <path
       id="rect1301-7-5-1"
       style="fill:#000101;stroke:#000000;stroke-width:0.0453305"
       d="m 105.13978,31.478638 -4.05092,0.934826 v 26.326041 l 4.05092,-0.935342 z m -1.61541,1.067636 c 0.70083,-0.01536 1.22473,0.497134 1.22473,1.260904 v 7.785571 c 0,0.872881 -0.6848,1.733759 -1.53531,1.930114 l -0.0806,0.0186 c -0.8505,0.196355 -1.5353,-0.348234 -1.5353,-1.221115 v -7.785571 c 0,-0.872879 0.6848,-1.733759 1.5353,-1.930114 l 0.0806,-0.0186 c 0.10632,-0.02455 0.21046,-0.0376 0.31058,-0.03979 z m -0.11886,13.565579 c 0.70084,-0.01536 1.22525,0.497136 1.22525,1.260906 v 7.785571 c 0,0.872879 -0.6848,1.733759 -1.5353,1.930114 l -0.0806,0.0186 c -0.85051,0.196358 -1.53531,-0.348231 -1.53531,-1.22111 v -7.785571 c 0,-0.872881 0.6848,-1.733761 1.53531,-1.930116 l 0.0806,-0.0186 c 0.10631,-0.02454 0.20994,-0.0376 0.31006,-0.03979 z" />
    <rect
       style="fill:#000101;fill-opacity:1;stroke:#000000;stroke-width:0.0459228;stroke-opacity:1"
       id="rect1301-7-1-1"
       width="4.1570964"
       height="26.325552"
       x="95.433723"
       y="55.751667"
       ry="0"
       transform="matrix(0.97437007,-0.22495105,0,1,0,0)" />
    <rect
       style="fill:#000101;fill-opacity:1;stroke:#000000;stroke-width:0.0459228;stroke-opacity:1"
       id="rect1301-3"
       width="4.1570964"
       height="26.325552"
       x="99.59082"
       y="55.751667"
       ry="0"
       transform="matrix(0.97437007,-0.22495105,0,1,0,0)" />
    <rect
       style="fill:#000101;fill-opacity:1;stroke:#000000;stroke-width:0.0459228;stroke-opacity:1"
       id="rect1301-7-1-6"
       width="4.1570964"
       height="26.325552"
       x="107.90504"
       y="55.751667"
       ry="0"
       transform="matrix(0.97437007,-0.22495105,0,1,0,0)" />
    <g
       id="g15222"
       transform="translate(0.13758271,-2.46577)">
      <path
         id="path14214"
         style="fill:#000000;fill-opacity:1;stroke:#000000;stroke-width:0.2;stroke-miterlimit:4;stroke-dasharray:none;stroke-opacity:1"
         d="m 33.521245,13.307102 a 8.3386601,8.3386601 0 0 0 -11.150428,3.839015 8.3386601,8.3386601 0 0 0 3.818791,11.13884 l -4.38e-4,8.98e-4 18.094616,8.825335 0.530881,0.258927 0.0097,-0.01997 a 8.3386601,8.3386601 0 0 0 10.60934,-4.078199 8.3386601,8.3386601 0 0 0 -3.839243,-11.149963 8.3386601,8.3386601 0 0 0 -0.63551,-0.275458 L 34.14816,13.647335 a 8.3386601,8.3386601 0 0 0 -0.626903,-0.340262 z" />
      <circle
         style="fill:#9c9c9c;fill-opacity:1;stroke:#000000;stroke-width:0.2;stroke-miterlimit:4;stroke-dasharray:none;stroke-opacity:1"
         id="circle14632"
         cx="56.04237"
         cy="5.665936"
         r="8.3386602"
         transform="rotate(26)" />
      <rect
         style="fill:#ffffff;fill-opacity:1;stroke:#000000;stroke-width:0.2;stroke-miterlimit:4;stroke-dasharray:none;stroke-opacity:1"
         id="rect14929"
         width="13.558044"
         height="3.860491"
         x="41.40239"
         y="27.893696" />
      <circle
         style="fill:#ffffff;fill-opacity:1;stroke:#000000;stroke-width:0.167093;stroke-miterlimit:4;stroke-dasharray:none;stroke-opacity:1"
         id="path15099"
         cx="43.947403"
         cy="29.901154"
         r="1.4062303" />
      <circle
         style="fill:#ffffff;fill-opacity:1;stroke:#000000;stroke-width:0.167093;stroke-miterlimit:4;stroke-dasharray:none;stroke-opacity:1"
         id="path15099-6"
         cx="48.487343"
         cy="29.901154"
         r="1.4062303" />
      <circle
         style="fill:#ffffff;fill-opacity:1;stroke:#000000;stroke-width:0.167093;stroke-miterlimit:4;stroke-dasharray:none;stroke-opacity:1"
         id="path15099-60"
         cx="53.027275"
         cy="29.901154"
         r="1.4062303" />
    </g>
    <path
       id="rect16669"
       style="fill:#ff0400;stroke:#000000;stroke-width:0.165"
       d="m 53.336119,27.36867 88.080971,44.225786 v 0.86475 L 53.336119,28.23342 Z"
       sodipodi:nodetypes="ccccc" />
    <path
       id="rect16669-6"
       style="fill:#00ff09;fill-opacity:1;stroke:#000000;stroke-width:0.165"
       d="m 48.703527,27.183365 96.604933,43.731643 v 0.86475 L 48.703527,28.048115 Z"
       sodipodi:nodetypes="ccccc" />
    <path
       id="rect16669-1"
       style="fill:#0200ff;fill-opacity:1;stroke:#000000;stroke-width:0.165"
       d="M 43.763615,27.188309 149.8808,70.178738 v 0.86475 L 43.763615,28.053059 Z"
       sodipodi:nodetypes="ccccc" />
    <rect
       style="fill:#000101;fill-opacity:1;stroke:#000000;stroke-width:0.0459228;stroke-opacity:1"
       id="rect1301"
       width="4.1570964"
       height="26.325552"
       x="74.648224"
       y="55.751667"
       ry="0"
       transform="matrix(0.97437007,-0.22495105,0,1,0,0)" />
    <rect
       style="fill:#000101;fill-opacity:1;stroke:#000000;stroke-width:0.0459228;stroke-opacity:1"
       id="rect1301-7-1"
       width="4.1570964"
       height="26.325552"
       x="82.962425"
       y="55.751667"
       ry="0"
       transform="matrix(0.97437007,-0.22495105,0,1,0,0)" />
    <rect
       style="fill:#000101;fill-opacity:1;stroke:#000000;stroke-width:0.0459228;stroke-opacity:1"
       id="rect1301-1"
       width="4.1570964"
       height="26.325552"
       x="87.119537"
       y="55.751667"
       ry="0"
       transform="matrix(0.97437007,-0.22495105,0,1,0,0)" />
    <rect
       style="fill:#c43340;fill-opacity:1;stroke:#000000;stroke-width:0.202613;stroke-miterlimit:4;stroke-dasharray:none;stroke-opacity:1"
       id="rect1301-2"
       width="4.1570964"
       height="26.325552"
       x="130.38029"
       y="90.89212"
       ry="0"
       transform="matrix(0.97437007,-0.22495105,0,1,0,0)" />
    <rect
       style="fill:#c43340;fill-opacity:1;stroke:#000000;stroke-width:0.202613;stroke-miterlimit:4;stroke-dasharray:none;stroke-opacity:1"
       id="rect1301-1-2"
       width="4.1570964"
       height="26.325552"
       x="142.85161"
       y="90.89212"
       ry="0"
       transform="matrix(0.97437007,-0.22495105,0,1,0,0)" />
    <rect
       style="fill:#c43340;fill-opacity:1;stroke:#000000;stroke-width:0.202613;stroke-miterlimit:4;stroke-dasharray:none;stroke-opacity:1"
       id="rect1301-3-7"
       width="4.1570964"
       height="26.325552"
       x="155.32291"
       y="90.89212"
       ry="0"
       transform="matrix(0.97437007,-0.22495105,0,1,0,0)" />
    <rect
       style="fill:#64b674;fill-opacity:1;stroke:#000000;stroke-width:0.202613;stroke-miterlimit:4;stroke-dasharray:none;stroke-opacity:1"
       id="rect1301-7-7"
       width="4.1570964"
       height="26.325552"
       x="134.53738"
       y="90.89212"
       ry="0"
       transform="matrix(0.97437007,-0.22495105,0,1,0,0)" />
    <rect
       style="fill:#64b674;fill-opacity:1;stroke:#000000;stroke-width:0.202613;stroke-miterlimit:4;stroke-dasharray:none;stroke-opacity:1"
       id="rect1301-7-3-7"
       width="4.1570964"
       height="26.325552"
       x="147.0087"
       y="90.89212"
       ry="0"
       transform="matrix(0.97437007,-0.22495105,0,1,0,0)" />
    <rect
       style="fill:#64b674;fill-opacity:1;stroke:#000000;stroke-width:0.202613;stroke-miterlimit:4;stroke-dasharray:none;stroke-opacity:1"
       id="rect1301-7-8-4"
       width="4.1570964"
       height="26.325552"
       x="159.48001"
       y="90.89212"
       ry="0"
       transform="matrix(0.97437007,-0.22495105,0,1,0,0)" />
    <rect
       style="fill:#676cbe;fill-opacity:1;stroke:#000000;stroke-width:0.202613;stroke-miterlimit:4;stroke-dasharray:none;stroke-opacity:1"
       id="rect1301-7-1-13"
       width="4.1570964"
       height="26.325552"
       x="138.69449"
       y="90.89212"
       ry="0"
       transform="matrix(0.97437007,-0.22495105,0,1,0,0)" />
    <rect
       style="fill:#676cbe;fill-opacity:1;stroke:#000000;stroke-width:0.202613;stroke-miterlimit:4;stroke-dasharray:none;stroke-opacity:1"
       id="rect1301-7-1-1-8"
       width="4.1570964"
       height="26.325552"
       x="151.1658"
       y="90.89212"
       ry="0"
       transform="matrix(0.97437007,-0.22495105,0,1,0,0)" />
    <rect
       style="fill:#676cbe;fill-opacity:1;stroke:#000000;stroke-width:0.202613;stroke-miterlimit:4;stroke-dasharray:none;stroke-opacity:1"
       id="rect1301-7-1-6-3"
       width="4.1570964"
       height="26.325552"
       x="163.6371"
       y="90.89212"
       ry="0"
       transform="matrix(0.97437007,-0.22495105,0,1,0,0)" />
    <ellipse
       style="fill:#06ff00;fill-opacity:1;stroke:#000000;stroke-width:0.202613;stroke-miterlimit:4;stroke-dasharray:none;stroke-opacity:1"
       id="path7254"
       cx="149.06728"
       cy="104.96282"
       rx="1.6482077"
       ry="1.6059642"
       transform="matrix(0.97437006,-0.22495105,0,1,0,0)" />
    <ellipse
       style="fill:#0000ff;fill-opacity:1;stroke:#000000;stroke-width:0.202613;stroke-miterlimit:4;stroke-dasharray:none;stroke-opacity:1"
       id="path7254-3"
       cx="153.27866"
       cy="104.96282"
       rx="1.6482077"
       ry="1.6059642"
       transform="matrix(0.97437006,-0.22495105,0,1,0,0)" />
    <ellipse
       style="fill:#ff0000;fill-opacity:1;stroke:#000000;stroke-width:0.202613;stroke-miterlimit:4;stroke-dasharray:none;stroke-opacity:1"
       id="path7254-8"
       cx="144.93553"
       cy="105.00066"
       rx="1.6482077"
       ry="1.6059642"
       transform="matrix(0.97437007,-0.22495105,0,1,0,0)" />
    <path
       id="rect3454-7-23-05-0"
       style="fill:#ffffff;stroke:#ffffff;stroke-width:0.304019"
       transform="matrix(0.97437006,-0.22495105,0,1,0,0)"
       d="m 87.938274,157.44385 h 0.0829 c 0.872879,0 1.575595,0.70271 1.575595,1.57559 v 7.7853 c 0,0.87288 -0.702716,1.57559 -1.575595,1.57559 h -0.0829 c -0.87288,0 -1.575595,-0.70271 -1.575595,-1.57559 v -7.7853 c 0,-0.87288 0.702715,-1.57559 1.575595,-1.57559 z" />
    <path
       id="rect1301-7-5"
       style="fill:#000101;stroke:#000000;stroke-width:0.0453305"
       d="m 80.836463,37.089501 -4.050917,0.934826 v 26.326041 l 4.050917,-0.935342 z m -1.615406,1.067636 c 0.700831,-0.01536 1.22473,0.497134 1.224732,1.260904 v 7.785571 c 0,0.872881 -0.684799,1.733759 -1.535308,1.930114 l -0.08062,0.0186 c -0.850508,0.196355 -1.535305,-0.348234 -1.535305,-1.221115 V 40.14564 c 0,-0.872879 0.684797,-1.733759 1.535305,-1.930114 l 0.08062,-0.0186 c 0.106315,-0.02455 0.210458,-0.0376 0.310576,-0.03979 z m -0.118856,13.565579 c 0.700831,-0.01536 1.225248,0.497136 1.225248,1.260906 v 7.785571 c 0,0.872879 -0.6848,1.733759 -1.535305,1.930114 l -0.08062,0.0186 c -0.850505,0.196358 -1.535305,-0.348231 -1.535305,-1.22111 v -7.785571 c 0,-0.872881 0.6848,-1.733761 1.535309,-1.930116 l 0.08062,-0.0186 c 0.106312,-0.02454 0.209939,-0.0376 0.310057,-0.03979 z" />
    <rect
       style="fill:#ffffff;fill-opacity:1;stroke:#ffffff;stroke-width:0.304019;stroke-miterlimit:4;stroke-dasharray:none;stroke-opacity:1"
       id="rect3454-3-8-7-9"
       width="3.2340884"
       height="10.936483"
       x="106.58158"
       y="128.94766"
       ry="1.5755953"
       transform="matrix(0.97437006,-0.22495105,0,1,0,0)" />
    <rect
       style="fill:#ffffff;fill-opacity:1;stroke:#ffffff;stroke-width:0.304019;stroke-miterlimit:4;stroke-dasharray:none;stroke-opacity:1"
       id="rect3454-7-23-0-8"
       width="3.2340884"
       height="10.936483"
       x="106.45991"
       y="169.56219"
       ry="1.5755953"
       transform="matrix(0.97437006,-0.22495105,0,1,0,0)" />
    <path
       id="rect1301-7-3-74"
       style="fill:#000101;stroke:#000000;stroke-width:0.0453305"
       d="m 92.987623,34.284073 -0.308507,0.07131 v 2.177645 c 0,0.872879 -0.684805,1.733759 -1.535305,1.930114 l -0.08114,0.0186 c -0.850506,0.196355 -1.53479,-0.348234 -1.53479,-1.221113 v -2.178161 l -0.590661,0.136424 v 26.325526 l 0.471805,-0.109038 v -4.856551 c 0,-0.872879 0.6848,-1.733759 1.535308,-1.930115 l 0.08062,-0.0186 c 0.850506,-0.196355 1.535306,0.348234 1.535306,1.221113 v 4.857068 l 0.427363,-0.0987 z m -1.533755,6.740673 c 0.700831,-0.01535 1.225248,0.497136 1.225248,1.260906 v 7.785571 c 0,0.872879 -0.684802,1.733759 -1.535305,1.930114 l -0.08114,0.0186 c -0.850506,0.196355 -1.53479,-0.348234 -1.53479,-1.221113 v -7.785571 c 0,-0.872882 0.684284,-1.733759 1.53479,-1.930114 l 0.08114,-0.0186 c 0.106309,-0.02455 0.209938,-0.03759 0.310057,-0.03979 z" />
    <path
       id="path19652"
       style="fill:#0200ff;fill-opacity:1;stroke:none;stroke-width:0.165"
       d="M 90.148936,46.039135 93.563738,47.45948 93.100479,47.976786 89.87098,46.54872 Z"
       sodipodi:nodetypes="ccccc" />
    <text
       xml:space="preserve"
       style="font-size:4.23333px;line-height:1.25;font-family:Novarese;-inkscape-font-specification:Novarese;stroke-width:0.264583"
       x="34.739437"
       y="39.536938"
       id="text22289"><tspan
         sodipodi:role="line"
         id="tspan22287"
         style="font-style:normal;font-variant:normal;font-weight:normal;font-stretch:normal;font-size:4.23333px;font-family:'Roboto Mono';-inkscape-font-specification:'Roboto Mono';text-align:center;text-anchor:middle;stroke-width:0.264583"
         x="34.739437"
         y="39.536938">ELECTON </tspan><tspan
         sodipodi:role="line"
         style="font-style:normal;font-variant:normal;font-weight:normal;font-stretch:normal;font-size:4.23333px;font-family:'Roboto Mono';-inkscape-font-specification:'Roboto Mono';text-align:center;text-anchor:middle;stroke-width:0.264583"
         x="34.739437"
         y="44.866501"
         id="tspan23132">GUN</tspan></text>
    <text
       xml:space="preserve"
       style="font-size:4.23333px;line-height:1.25;font-family:Novarese;-inkscape-font-specification:Novarese;stroke-width:0.264583"
       x="65.721741"
       y="65.060638"
       id="text22289-7"><tspan
         sodipodi:role="line"
         style="font-style:normal;font-variant:normal;font-weight:normal;font-stretch:normal;font-size:4.23333px;font-family:'Roboto Mono';-inkscape-font-specification:'Roboto Mono';text-align:center;text-anchor:middle;stroke-width:0.264583"
         x="65.721741"
         y="65.060638"
         id="tspan23132-6">MASK</tspan></text>
    <text
       xml:space="preserve"
       style="font-size:4.23333px;line-height:1.25;font-family:Novarese;-inkscape-font-specification:Novarese;stroke-width:0.264583"
       x="105.33597"
       y="87.640312"
       id="text22289-7-1"><tspan
         sodipodi:role="line"
         style="font-style:normal;font-variant:normal;font-weight:normal;font-stretch:normal;font-size:4.23333px;font-family:'Roboto Mono';-inkscape-font-specification:'Roboto Mono';text-align:center;text-anchor:middle;stroke-width:0.264583"
         x="105.33597"
         y="87.640312"
         id="tspan23132-6-6">PHOSPORE STRIPS</tspan></text>
    <path
       style="fill:none;stroke:#000000;stroke-width:0.165;stroke-linecap:butt;stroke-linejoin:miter;stroke-miterlimit:4;stroke-dasharray:0.165, 0.165;stroke-dashoffset:0;stroke-opacity:1"
       d="m 126.74722,65.077945 13.32532,6.541773"
       id="path37301"
       sodipodi:nodetypes="cc" />
    <path
       style="fill:none;stroke:#000000;stroke-width:0.165;stroke-linecap:butt;stroke-linejoin:miter;stroke-miterlimit:4;stroke-dasharray:0.165, 0.165;stroke-dashoffset:0;stroke-opacity:1"
       d="m 126.91709,64.352174 13.68158,6.76358"
       id="path37301-2"
       sodipodi:nodetypes="cc" />
    <path
       style="fill:none;stroke:#000000;stroke-width:0.165;stroke-linecap:butt;stroke-linejoin:miter;stroke-miterlimit:4;stroke-dasharray:0.165, 0.165;stroke-dashoffset:0;stroke-opacity:1"
       d="m 126.85158,63.27794 17.18393,7.461119"
       id="path37301-29"
       sodipodi:nodetypes="cc" />
    <path
       style="fill:none;stroke:#000000;stroke-width:0.165;stroke-linecap:butt;stroke-linejoin:miter;stroke-miterlimit:4;stroke-dasharray:0.165, 0.165;stroke-dashoffset:0;stroke-opacity:1"
       d="m 127.02145,62.552169 17.53645,7.617732"
       id="path37301-2-8"
       sodipodi:nodetypes="cc" />
    <path
       style="fill:none;stroke:#000000;stroke-width:0.165;stroke-linecap:butt;stroke-linejoin:miter;stroke-miterlimit:4;stroke-dasharray:0.165, 0.165;stroke-dashoffset:0;stroke-opacity:1"
       d="M 126.97511,61.702859 148.09972,69.8871"
       id="path37301-0"
       sodipodi:nodetypes="cc" />
    <path
       style="fill:none;stroke:#000000;stroke-width:0.165;stroke-linecap:butt;stroke-linejoin:miter;stroke-miterlimit:4;stroke-dasharray:0.165, 0.165;stroke-dashoffset:0;stroke-opacity:1"
       d="m 127.82443,61.285927 20.72311,7.937169"
       id="path37301-2-5"
       sodipodi:nodetypes="cc" />
  </g>
</svg>
