<?xml version="1.0" encoding="UTF-8" standalone="no"?>
<!-- Created with Inkscape (http://www.inkscape.org/) -->

<svg
   width="208.68385mm"
   height="73.94223mm"
   viewBox="0 0 208.68385 73.94223"
   version="1.1"
   id="svg5"
   inkscape:version="1.1.2 (08b2f3d93c, 2022-04-05)"
   sodipodi:docname="sound_deps.svg"
   xmlns:inkscape="http://www.inkscape.org/namespaces/inkscape"
   xmlns:sodipodi="http://sodipodi.sourceforge.net/DTD/sodipodi-0.dtd"
   xmlns="http://www.w3.org/2000/svg"
   xmlns:svg="http://www.w3.org/2000/svg">
  <sodipodi:namedview
     id="namedview7"
     pagecolor="#ffffff"
     bordercolor="#666666"
     borderopacity="1.0"
     inkscape:pageshadow="2"
     inkscape:pageopacity="0.0"
     inkscape:pagecheckerboard="0"
     inkscape:document-units="mm"
     showgrid="false"
     fit-margin-top="0"
     fit-margin-left="0"
     fit-margin-right="0"
     fit-margin-bottom="0"
     inkscape:snap-global="false"
     inkscape:zoom="2.3345674"
     inkscape:cx="632.45122"
     inkscape:cy="5.354311"
     inkscape:window-width="1280"
     inkscape:window-height="736"
     inkscape:window-x="0"
     inkscape:window-y="0"
     inkscape:window-maximized="1"
     inkscape:current-layer="layer1" />
  <defs
     id="defs2">
    <marker
       style="overflow:visible"
       id="TriangleOutM"
       refX="0"
       refY="0"
       orient="auto"
       inkscape:stockid="TriangleOutM"
       inkscape:isstock="true">
      <path
         transform="scale(0.4)"
         style="fill:context-stroke;fill-rule:evenodd;stroke:context-stroke;stroke-width:1pt"
         d="M 5.77,0 -2.88,5 V -5 Z"
         id="path19548" />
    </marker>
    <marker
       style="overflow:visible"
       id="TriangleOutM-0"
       refX="0"
       refY="0"
       orient="auto"
       inkscape:stockid="TriangleOutM"
       inkscape:isstock="true">
      <path
         transform="scale(0.4)"
         style="fill:context-stroke;fill-rule:evenodd;stroke:context-stroke;stroke-width:1pt"
         d="M 5.77,0 -2.88,5 V -5 Z"
         id="path19548-9" />
    </marker>
  </defs>
  <g
     inkscape:label="Layer 1"
     inkscape:groupmode="layer"
     id="layer1"
     transform="translate(-1.0741594,-0.60948458)">
    <rect
       style="fill:#c8c8c8;fill-opacity:1;stroke:#000000;stroke-width:0.766;stroke-miterlimit:4;stroke-dasharray:none;stroke-opacity:1"
       id="rect938-3"
       width="83.292976"
       height="73.176231"
       x="126.08204"
       y="0.99248457" />
    <rect
       style="fill:#c8c8c8;fill-opacity:1;stroke:#000000;stroke-width:0.766;stroke-miterlimit:4;stroke-dasharray:none;stroke-opacity:1"
       id="rect938-3-6"
       width="83.292976"
       height="73.176231"
       x="1.4571594"
       y="0.99248457" />
    <text
       xml:space="preserve"
       style="font-size:7.76111px;line-height:1.25;font-family:sans-serif;letter-spacing:0px;word-spacing:0px;stroke-width:0.264583"
       x="22.62904"
       y="11.123787"
       id="text3400"><tspan
         sodipodi:role="line"
         id="tspan3398"
         style="font-style:normal;font-variant:normal;font-weight:bold;font-stretch:normal;font-size:7.76111px;font-family:'Roboto Mono';-inkscape-font-specification:'Roboto Mono Bold';stroke-width:0.264583"
         x="22.62904"
         y="11.123787">Z-80 ROM</tspan></text>
    <text
       xml:space="preserve"
       style="font-size:7.76111px;line-height:1.25;font-family:sans-serif;letter-spacing:0px;word-spacing:0px;stroke-width:0.264583"
       x="154.73102"
       y="11.939476"
       id="text3400-7"><tspan
         sodipodi:role="line"
         id="tspan3398-5"
         style="font-style:normal;font-variant:normal;font-weight:bold;font-stretch:normal;font-size:7.76111px;font-family:'Roboto Mono';-inkscape-font-specification:'Roboto Mono Bold';stroke-width:0.264583"
         x="154.73102"
         y="11.939476">OKI ROM</tspan></text>
    <rect
       style="fill:#ffffff;fill-opacity:1;stroke:#000000;stroke-width:0.766;stroke-miterlimit:4;stroke-dasharray:none;stroke-opacity:1"
       id="rect14987"
       width="67.663841"
       height="19.865887"
       x="7.7451425"
       y="22.097525" />
    <rect
       style="fill:#ffffff;fill-opacity:1;stroke:#000000;stroke-width:0.766;stroke-miterlimit:4;stroke-dasharray:none;stroke-opacity:1"
       id="rect14987-3"
       width="67.663841"
       height="19.865887"
       x="7.9611821"
       y="47.363152" />
    <rect
       style="fill:#ffffff;fill-opacity:1;stroke:#000000;stroke-width:0.766;stroke-miterlimit:4;stroke-dasharray:none;stroke-opacity:1"
       id="rect14987-5"
       width="67.663834"
       height="47.494797"
       x="134.12221"
       y="20.011156" />
    <text
       xml:space="preserve"
       style="font-size:7.76111px;line-height:1.25;font-family:sans-serif;letter-spacing:0px;word-spacing:0px;stroke-width:0.264583"
       x="13.547657"
       y="35.340736"
       id="text3400-6"><tspan
         sodipodi:role="line"
         id="tspan3398-2"
         style="font-style:normal;font-variant:normal;font-weight:bold;font-stretch:normal;font-size:7.76111px;font-family:'Roboto Mono';-inkscape-font-specification:'Roboto Mono Bold';stroke-width:0.264583"
         x="13.547657"
         y="35.340736">INSTRUCTIONS</tspan></text>
    <text
       xml:space="preserve"
       style="font-size:7.76111px;line-height:1.25;font-family:sans-serif;letter-spacing:0px;word-spacing:0px;stroke-width:0.264583"
       x="15.531383"
       y="60.871334"
       id="text3400-9"><tspan
         sodipodi:role="line"
         id="tspan3398-1"
         style="font-style:normal;font-variant:normal;font-weight:bold;font-stretch:normal;font-size:7.76111px;font-family:'Roboto Mono';-inkscape-font-specification:'Roboto Mono Bold';stroke-width:0.264583"
         x="15.531383"
         y="60.871334">MUSIC TRACKS</tspan></text>
    <text
       xml:space="preserve"
       style="font-size:7.76111px;line-height:1.25;font-family:sans-serif;letter-spacing:0px;word-spacing:0px;stroke-width:0.264583"
       x="152.09801"
       y="36.135387"
       id="text3400-2"><tspan
         sodipodi:role="line"
         id="tspan3398-7"
         style="font-style:normal;font-variant:normal;font-weight:bold;font-stretch:normal;font-size:7.76111px;font-family:'Roboto Mono';-inkscape-font-specification:'Roboto Mono Bold';stroke-width:0.264583"
         x="152.09801"
         y="36.135387">SAMPLES</tspan></text>
    <path
       style="fill:none;stroke:#000000;stroke-width:1.965;stroke-linecap:butt;stroke-linejoin:miter;stroke-miterlimit:4;stroke-dasharray:none;stroke-opacity:1;marker-end:url(#TriangleOutM)"
       d="M 75.015107,31.748787 H 129.57109"
       id="path19401"
       sodipodi:nodetypes="cc" />
    <path
       style="fill:none;stroke:#000000;stroke-width:1.965;stroke-linecap:butt;stroke-linejoin:miter;stroke-miterlimit:4;stroke-dasharray:none;stroke-opacity:1;marker-end:url(#TriangleOutM-0)"
       d="M 74.291233,55.679996 H 128.84722"
       id="path19401-3"
       sodipodi:nodetypes="cc" />
    <path
       d="m 197.81247,50.583112 c -0.30639,-1.13506 -2.58684,-2.2516 -6.57596,-2.2516 -3.98912,0 -6.26983,1.11654 -6.57595,2.2516 -0.0222,0.0389 -0.0386,0.0815 -0.0386,0.12965 v 0.13229 3.04271 0.13229 0.13229 2.91042 0.13229 0.13229 3.175 c 0,0.0429 0.0114,0.0833 0.031,0.11933 0.31248,1.29514 3.10806,2.26192 6.58363,2.26192 3.46763,0 6.25872,-0.96282 6.58151,-2.25319 0.0212,-0.0378 0.0331,-0.0815 0.0331,-0.12806 v -3.175 -0.13229 -0.13229 -2.91042 -0.13229 -0.13229 -3.04271 -0.13229 c 0,-0.0481 -0.0164,-0.0907 -0.0386,-0.12965 z m -0.51144,6.74026 c -0.007,0.032 -0.0177,0.0638 -0.0307,0.096 -0.0106,0.0262 -0.0235,0.0524 -0.0378,0.0786 -0.0177,0.0325 -0.0376,0.0651 -0.0611,0.0976 -0.0175,0.0246 -0.0373,0.049 -0.0579,0.0733 -0.0294,0.0347 -0.0606,0.0693 -0.096,0.10372 -0.0214,0.0209 -0.045,0.0415 -0.0688,0.0624 -0.0434,0.0378 -0.0886,0.0754 -0.13917,0.11271 -0.0217,0.0161 -0.045,0.0318 -0.068,0.0476 -0.0598,0.0413 -0.12224,0.0823 -0.19076,0.1225 -0.018,0.0109 -0.0373,0.0212 -0.0561,0.0318 -0.0789,0.0444 -0.16114,0.0886 -0.25004,0.1315 -0.0114,0.006 -0.0233,0.0108 -0.0349,0.0161 -0.0992,0.0468 -0.20294,0.0929 -0.3138,0.13731 -0.003,0.001 -0.006,0.002 -0.01,0.004 -0.60087,0.23998 -1.36948,0.44185 -2.2651,0.57414 -0.005,5.3e-4 -0.009,10e-4 -0.0135,0.002 -0.1741,0.0257 -0.35269,0.0484 -0.53605,0.0685 -0.0299,0.003 -0.0614,0.005 -0.0915,0.008 -0.16008,0.0167 -0.322,0.032 -0.48869,0.0442 -0.0762,0.006 -0.1561,0.008 -0.23363,0.013 -0.12541,0.007 -0.2495,0.0156 -0.37809,0.0201 -0.21008,0.007 -0.42439,0.0109 -0.6432,0.0109 -0.21881,0 -0.43312,-0.004 -0.64347,-0.0117 -0.12858,-0.004 -0.25267,-0.013 -0.37808,-0.0201 -0.0775,-0.005 -0.15743,-0.007 -0.23363,-0.013 -0.16669,-0.0122 -0.32861,-0.0275 -0.48869,-0.0442 -0.0302,-0.003 -0.0617,-0.005 -0.0915,-0.008 -0.18336,-0.0201 -0.36195,-0.0431 -0.53605,-0.0685 -0.004,-5.3e-4 -0.009,-10e-4 -0.0135,-0.002 -0.89562,-0.13229 -1.66423,-0.33417 -2.2651,-0.57415 -0.003,-0.001 -0.006,-0.002 -0.01,-0.004 -0.11086,-0.0444 -0.21484,-0.0905 -0.31379,-0.13732 -0.0114,-0.006 -0.0236,-0.0109 -0.0349,-0.0161 -0.0889,-0.0429 -0.17118,-0.0868 -0.25003,-0.1315 -0.0185,-0.0106 -0.0381,-0.0209 -0.0561,-0.0318 -0.0685,-0.0402 -0.13097,-0.0812 -0.19076,-0.1225 -0.0228,-0.0159 -0.0463,-0.0315 -0.068,-0.0476 -0.0505,-0.0373 -0.0958,-0.0749 -0.13917,-0.11272 -0.0236,-0.0206 -0.0474,-0.0413 -0.0688,-0.0624 -0.0355,-0.0344 -0.0667,-0.0688 -0.0961,-0.10371 -0.0206,-0.0244 -0.0405,-0.0487 -0.0579,-0.0733 -0.0233,-0.0325 -0.0431,-0.0651 -0.0611,-0.0976 -0.0143,-0.0262 -0.027,-0.0524 -0.0378,-0.0786 -0.013,-0.032 -0.0233,-0.064 -0.0307,-0.096 -0.01,-0.0421 -0.0206,-0.0849 -0.0206,-0.12753 0,-0.0299 0.003,-0.0598 0.008,-0.0894 0.007,-0.04 0.003,-0.0799 -0.008,-0.11774 v -1.96426 c 0.007,0.007 0.0167,0.0135 0.0243,0.0204 0.0577,0.0508 0.11641,0.10133 0.18256,0.15002 0.99668,0.7538 2.98979,1.33958 5.87851,1.33958 2.87655,0 4.86463,-0.58102 5.86555,-1.33032 0.0799,-0.0582 0.15187,-0.11827 0.2196,-0.17939 l 2.7e-4,-2.6e-4 v 1.96426 c -0.0111,0.0378 -0.0148,0.0778 -0.008,0.11774 0.005,0.0296 0.008,0.0595 0.008,0.0894 0,0.0426 -0.0109,0.0855 -0.0209,0.12832 z m 0.0209,-5.47475 v 1.96426 c -0.0111,0.0378 -0.0148,0.0778 -0.008,0.11774 0.005,0.0296 0.008,0.0595 0.008,0.0894 0,0.0426 -0.0109,0.0855 -0.0209,0.12832 -0.007,0.032 -0.0177,0.0638 -0.0307,0.0961 -0.0106,0.0262 -0.0235,0.0524 -0.0378,0.0786 -0.0177,0.0325 -0.0376,0.0651 -0.0611,0.0976 -0.0175,0.0246 -0.0373,0.0489 -0.0579,0.0733 -0.0294,0.0347 -0.0606,0.0693 -0.096,0.10372 -0.0214,0.0209 -0.045,0.0415 -0.0688,0.0624 -0.0434,0.0378 -0.0886,0.0754 -0.13917,0.11271 -0.0217,0.0161 -0.045,0.0317 -0.068,0.0476 -0.0598,0.0413 -0.12224,0.0823 -0.19076,0.1225 -0.018,0.0108 -0.0373,0.0212 -0.0561,0.0317 -0.0789,0.0445 -0.16114,0.0886 -0.25004,0.1315 -0.0114,0.006 -0.0233,0.0108 -0.0349,0.0161 -0.0992,0.0468 -0.20294,0.0929 -0.3138,0.13731 -0.003,0.001 -0.006,0.002 -0.01,0.004 -0.60087,0.23998 -1.36948,0.44185 -2.2651,0.57414 -0.005,5.3e-4 -0.009,10e-4 -0.0135,0.002 -0.1741,0.0257 -0.35269,0.0484 -0.53605,0.0685 -0.0299,0.003 -0.0614,0.005 -0.0915,0.008 -0.16008,0.0167 -0.322,0.032 -0.48869,0.0442 -0.0762,0.006 -0.1561,0.008 -0.23363,0.013 -0.12541,0.007 -0.2495,0.0156 -0.37809,0.0201 -0.21008,0.007 -0.42439,0.0109 -0.6432,0.0109 -0.21881,0 -0.43312,-0.004 -0.64347,-0.0117 -0.12858,-0.004 -0.25267,-0.013 -0.37808,-0.0201 -0.0775,-0.004 -0.15743,-0.007 -0.23363,-0.013 -0.16669,-0.0122 -0.32861,-0.0275 -0.48869,-0.0442 -0.0302,-0.003 -0.0617,-0.005 -0.0915,-0.008 -0.18336,-0.0201 -0.36195,-0.0431 -0.53605,-0.0685 -0.004,-5.3e-4 -0.009,-10e-4 -0.0135,-0.002 -0.89562,-0.13229 -1.66423,-0.33417 -2.2651,-0.57415 -0.003,-0.001 -0.006,-0.002 -0.01,-0.004 -0.11086,-0.0445 -0.21484,-0.0905 -0.31379,-0.13732 -0.0114,-0.006 -0.0236,-0.0109 -0.0349,-0.0161 -0.0889,-0.0429 -0.17118,-0.0868 -0.25003,-0.1315 -0.0185,-0.0106 -0.0381,-0.0209 -0.0561,-0.0317 -0.0685,-0.0402 -0.13097,-0.0812 -0.19076,-0.1225 -0.0228,-0.0159 -0.0463,-0.0315 -0.068,-0.0476 -0.0505,-0.0373 -0.0958,-0.0749 -0.13917,-0.11272 -0.0236,-0.0206 -0.0474,-0.0413 -0.0688,-0.0624 -0.0355,-0.0344 -0.0667,-0.0688 -0.0961,-0.10371 -0.0206,-0.0243 -0.0405,-0.0487 -0.0579,-0.0733 -0.0233,-0.0325 -0.0431,-0.0651 -0.0611,-0.0976 -0.0143,-0.0262 -0.027,-0.0524 -0.0378,-0.0786 -0.013,-0.032 -0.0233,-0.064 -0.0307,-0.096 -0.01,-0.0421 -0.0206,-0.0849 -0.0206,-0.12753 0,-0.0299 0.003,-0.0598 0.008,-0.0894 0.007,-0.04 0.003,-0.0799 -0.008,-0.11774 v -1.96426 c 0.0317,0.0288 0.068,0.0572 0.1024,0.0857 0.0191,0.0159 0.0368,0.0318 0.0569,0.0476 0.0794,0.0624 0.1651,0.12409 0.25797,0.18415 0.0193,0.0124 0.041,0.0246 0.0611,0.037 0.0778,0.0484 0.16007,0.0958 0.24659,0.14234 0.032,0.0172 0.064,0.0341 0.0971,0.0511 0.0966,0.0492 0.1979,0.0971 0.30453,0.1434 0.0175,0.008 0.0333,0.0156 0.0511,0.023 0.12408,0.0526 0.25585,0.10292 0.3929,0.15161 0.0378,0.0135 0.0775,0.0262 0.11642,0.0394 0.10901,0.0368 0.22172,0.072 0.3384,0.1061 0.0421,0.0122 0.0833,0.0249 0.12647,0.0365 0.15478,0.0429 0.31459,0.0836 0.48234,0.12118 0.023,0.005 0.0479,0.01 0.0712,0.0146 0.1479,0.0323 0.30136,0.0622 0.45905,0.0902 0.0534,0.01 0.10769,0.0185 0.16219,0.0275 0.15002,0.0246 0.30454,0.0471 0.46302,0.0677 0.0408,0.005 0.0796,0.0114 0.12092,0.0164 0.19685,0.0238 0.40058,0.0442 0.60986,0.0617 0.0516,0.004 0.10531,0.007 0.15769,0.0111 0.16748,0.0122 0.33867,0.0222 0.51382,0.0302 0.0638,0.003 0.12727,0.006 0.19236,0.008 0.22807,0.008 0.46037,0.0132 0.70114,0.0132 0.24077,0 0.47308,-0.006 0.70115,-0.0132 0.0648,-0.002 0.12832,-0.005 0.19235,-0.008 0.17515,-0.008 0.34634,-0.018 0.51382,-0.0302 0.0524,-0.004 0.10583,-0.007 0.15769,-0.0111 0.20929,-0.0172 0.41302,-0.0378 0.60987,-0.0617 0.0413,-0.005 0.0802,-0.0111 0.12091,-0.0164 0.15849,-0.0206 0.31274,-0.0431 0.46302,-0.0677 0.0545,-0.009 0.10875,-0.018 0.16219,-0.0275 0.15769,-0.028 0.31115,-0.0579 0.45905,-0.0902 0.0233,-0.005 0.0482,-0.01 0.0712,-0.0146 0.16774,-0.0376 0.32755,-0.0786 0.48233,-0.12118 0.0431,-0.0119 0.0844,-0.0243 0.12647,-0.0365 0.11668,-0.0341 0.2294,-0.0693 0.3384,-0.1061 0.0389,-0.0132 0.0786,-0.0259 0.11642,-0.0394 0.13706,-0.0487 0.26908,-0.099 0.39291,-0.15161 0.0177,-0.007 0.0336,-0.0153 0.0511,-0.023 0.10663,-0.0466 0.20796,-0.0942 0.30454,-0.1434 0.0331,-0.0169 0.0653,-0.0339 0.0971,-0.0511 0.0865,-0.0463 0.1688,-0.0937 0.24659,-0.14234 0.0201,-0.0124 0.0418,-0.0246 0.0611,-0.037 0.0929,-0.0601 0.17859,-0.12145 0.25797,-0.18415 0.0198,-0.0159 0.0376,-0.0318 0.0569,-0.0476 0.0344,-0.0286 0.0707,-0.0569 0.1024,-0.0857 z m -6.08542,-2.98794 c 3.58643,0 6.08542,1.04563 6.08542,1.98437 0,0.93874 -2.49899,1.98438 -6.08542,1.98438 -3.58643,0 -6.08542,-1.04564 -6.08542,-1.98438 0,-0.93874 2.49899,-1.98437 6.08542,-1.98437 z m 6.08542,11.56308 c -0.004,0.0116 -0.006,0.0236 -0.008,0.0357 -0.15002,0.91519 -2.62784,1.89495 -6.07695,1.89495 -3.44911,0 -5.92693,-0.97976 -6.07695,-1.89495 -0.002,-0.0119 -0.005,-0.0236 -0.008,-0.0347 v -2.2262 c 0.007,0.007 0.0167,0.0135 0.0243,0.0204 0.0577,0.0508 0.11641,0.10133 0.18256,0.15002 0.99668,0.7538 2.98979,1.33958 5.87851,1.33958 2.87655,0 4.86463,-0.58102 5.86555,-1.33032 0.0799,-0.0582 0.15187,-0.11827 0.2196,-0.17939 l 2.7e-4,-2.6e-4 z"
       id="path2"
       style="stroke-width:0.465;stroke-miterlimit:4;stroke-dasharray:none" />
  </g>
</svg>
