<?xml version="1.0" encoding="UTF-8"?>
<svg xmlns="http://www.w3.org/2000/svg" xmlns:xlink="http://www.w3.org/1999/xlink" width="755.4pt" height="209.14pt" viewBox="0 0 755.4 209.14" version="1.1">
<defs>
<clipPath id="clip1">
  <path d="M 31 81 L 208 81 L 208 209.140625 L 31 209.140625 Z M 31 81 "/>
</clipPath>
<clipPath id="clip2">
  <path d="M 0 149 L 94 149 L 94 209.140625 L 0 209.140625 Z M 0 149 "/>
</clipPath>
<clipPath id="clip3">
  <path d="M 650 86 L 755.398438 86 L 755.398438 202 L 650 202 Z M 650 86 "/>
</clipPath>
</defs>
<g id="surface1">
<g clip-path="url(#clip1)" clip-rule="nonzero">
<path style=" stroke:none;fill-rule:nonzero;fill:rgb(92.199707%,17.599487%,17.999268%);fill-opacity:1;" d="M 47.839844 89.539063 L 124.917969 89.539063 L 188.476563 198.507813 L 111.398438 198.507813 Z M 31.894531 81.566406 L 106.3125 209.140625 L 207.308594 209.140625 L 132.890625 81.566406 L 31.894531 81.566406 "/>
</g>
<g clip-path="url(#clip2)" clip-rule="nonzero">
<path style=" stroke:none;fill-rule:nonzero;fill:rgb(92.199707%,17.599487%,17.999268%);fill-opacity:1;" d="M 55.371094 166.613281 L 77.078125 201.167969 L 21.261719 201.167969 Z M 58.5 149.949219 L 0 209.140625 L 93.023438 209.140625 L 58.5 149.949219 "/>
</g>
<path style=" stroke:none;fill-rule:nonzero;fill:rgb(92.199707%,17.599487%,17.999268%);fill-opacity:1;" d="M 181.300781 124.054688 L 159.59375 89.503906 L 215.40625 89.503906 Z M 178.171875 140.710938 L 236.671875 81.527344 L 143.644531 81.527344 L 178.171875 140.710938 "/>
<path style=" stroke:none;fill-rule:nonzero;fill:rgb(92.199707%,17.599487%,17.999268%);fill-opacity:1;" d="M 336.90625 123.621094 L 320.230469 123.621094 C 320.789063 119.605469 320.640625 116.921875 320.523438 114.46875 C 320.410156 111.96875 320.152344 109.78125 319.019531 108.976563 C 316.644531 106.929688 306.96875 107.113281 296.675781 107.113281 L 287.042969 107.113281 C 276.804688 107.113281 270.8125 107.054688 267.703125 109.355469 C 263.683594 112.484375 261.253906 117.265625 260.414063 123.699219 L 257.703125 134.765625 C 257.703125 134.765625 259.507813 132.054688 263.566406 131.621094 C 270.691406 130.851563 282.554688 131.566406 287.007813 131.566406 C 297.871094 131.753906 306.84375 131.113281 312.683594 132.070313 C 318.519531 133.035156 324.875 134.296875 327.910156 137.59375 C 330.597656 140.347656 332.066406 144.574219 332.332031 150.269531 C 332.511719 154.023438 331.765625 160.167969 330.109375 168.671875 C 329.179688 172.773438 328.097656 176.476563 326.859375 179.761719 C 325.625 183.058594 323.925781 186.113281 321.746094 188.933594 C 319.574219 191.75 316.988281 196.632813 313.984375 198.261719 C 309.246094 200.679688 303.167969 200.519531 297.675781 201.167969 C 292.183594 201.8125 283.375 201.167969 274.648438 201.167969 C 266.863281 201.167969 258.960938 201.34375 253.289063 200.671875 C 247.609375 199.996094 242.933594 198.359375 239.257813 195.753906 C 234.765625 192.484375 232.238281 187.078125 231.699219 179.550781 C 231.671875 175.660156 232.105469 171.238281 233 166.269531 L 242.296875 117.496094 C 244.058594 106.820313 247.328125 98.496094 255.097656 93.535156 C 259.421875 90.839844 264.664063 89.058594 270.832031 88.191406 C 277.007813 87.316406 287.1875 86.882813 296.070313 86.882813 L 309.730469 86.882813 C 319.019531 86.882813 321.605469 88.121094 328.117188 90.59375 C 334.628906 93.0625 338.058594 98 338.402344 105.398438 C 338.507813 107.558594 338.003906 117.179688 336.90625 123.621094 Z M 252.714844 164.628906 C 252.570313 164.441406 252.269531 166.074219 251.8125 169.511719 C 251.351563 172.949219 251.09375 175.507813 251.046875 177.175781 C 251.527344 180.734375 252.742188 180.765625 254.707031 182.5625 C 256.347656 183.570313 257.746094 183.285156 261.6875 183.730469 C 265.632813 184.183594 289.097656 184.191406 293.066406 183.746094 C 297.027344 183.316406 300.34375 182.773438 302.503906 181.347656 C 306.722656 178.699219 309.582031 174.890625 311.078125 164.597656 C 312.152344 159.039063 312.621094 157.613281 312.496094 154.992188 C 312.335938 151.484375 310.546875 149.125 307.128906 147.941406 C 303.710938 146.753906 298.722656 147.328125 293.175781 147.328125 L 282.226563 147.328125 C 270.449219 147.328125 263.320313 147.378906 259.792969 149.816406 C 255.78125 152.5 254.183594 156.070313 252.714844 164.628906 "/>
<path style=" stroke:none;fill-rule:nonzero;fill:rgb(92.199707%,17.599487%,17.999268%);fill-opacity:1;" d="M 389.785156 149.398438 C 382.742188 149.398438 375.539063 149.375 371.738281 149.800781 C 367.9375 150.226563 364.828125 151.039063 362.394531 152.234375 C 360.152344 153.246094 358.355469 155.070313 356.988281 157.710938 C 355.617188 160.359375 354.410156 164.046875 353.355469 168.769531 C 352.460938 174.242188 352.578125 175.332031 352.410156 176.925781 C 352.746094 179.832031 353.355469 181.542969 355.554688 182.507813 C 357.757813 183.472656 360.929688 185.15625 365.300781 185.34375 C 368.628906 185.703125 377.320313 185.882813 386.050781 185.882813 C 395.109375 185.882813 402.21875 186.511719 407.132813 184.679688 C 409.453125 183.660156 412.015625 183.378906 413.484375 180.753906 C 414.964844 178.140625 415.601563 175.429688 416.726563 170.378906 C 417.621094 166.519531 418.046875 163.488281 417.992188 161.292969 C 417.933594 158.792969 417.234375 154.230469 415.875 152.925781 C 414.753906 151.660156 412.242188 150.722656 408.363281 150.101563 C 404.484375 149.472656 397.703125 149.398438 389.785156 149.398438 Z M 428.933594 142.039063 C 435.800781 144.855469 435.800781 151.484375 435.980469 159.109375 C 436.007813 160.183594 436.261719 165.984375 435.90625 167.996094 C 435.554688 169.996094 435.667969 171.542969 435.546875 172.1875 C 434.027344 179.1875 433.535156 182.269531 431.167969 186.40625 C 428.804688 190.554688 427.410156 193.519531 423.285156 195.734375 C 419.6875 197.773438 415.125 199.191406 409.605469 199.980469 C 404.078125 200.765625 394.394531 201.167969 385.863281 201.167969 L 374.839844 201.167969 C 365.300781 201.167969 357.839844 200.820313 352.453125 200.128906 C 347.074219 199.4375 343.902344 196.957031 340.738281 194.0625 C 337.753906 191.457031 334.921875 185.132813 334.433594 179.035156 C 334.59375 176.191406 335.097656 174.738281 335.9375 169.378906 C 337.046875 164.425781 337.3125 160.441406 338.1875 157.78125 C 339.066406 155.132813 340.820313 152.015625 342.75 149.578125 C 344.675781 147.148438 347.519531 145.367188 350.886719 143.445313 C 352.957031 142.261719 353.578125 141.808594 351.460938 140.035156 C 349.132813 138.097656 348.511719 136.277344 347.855469 133.90625 C 347.519531 133.160156 347.339844 125.933594 347.304688 125.691406 C 348.332031 109.1875 352.65625 100.78125 360.390625 94.429688 C 364.9375 90.53125 366.9375 88.21875 377.019531 87.5 C 382.195313 87.085938 396.378906 86.882813 403.625 86.882813 C 413.617188 86.882813 423.335938 87.09375 427.472656 87.519531 C 431.105469 88.050781 434.261719 88.828125 436.953125 89.847656 C 439.648438 90.875 439.371094 92.621094 441.425781 95.09375 C 443.226563 97.371094 444.183594 100.984375 444.300781 105.929688 C 444.378906 109.339844 444.15625 112.890625 443.625 116.601563 C 443.101563 120.308594 442.136719 123.875 440.726563 127.324219 C 439.328125 130.769531 437.511719 133.515625 435.277344 135.582031 C 432.480469 138.628906 432.871094 140.761719 429.164063 141.976563 C 428.367188 142.242188 427.945313 142.058594 427.960938 141.933594 C 427.96875 141.835938 428.289063 141.773438 428.933594 142.039063 Z M 400.964844 102.472656 C 390.007813 102.472656 380.03125 102.96875 376.355469 103.960938 C 372.769531 104.960938 370.515625 104.875 368.894531 107.441406 C 367.28125 110.011719 366.257813 112.707031 365.8125 115.53125 C 365.371094 118.347656 364.972656 122.140625 364.625 126.890625 C 364.972656 129.742188 365.882813 131.707031 367.363281 132.769531 C 370.199219 134.5625 380.128906 134.722656 393.027344 134.722656 C 404.582031 134.722656 413.203125 134.480469 417.722656 132.523438 C 419.632813 131.769531 421.28125 130.070313 422.664063 127.429688 C 424.054688 124.78125 424.894531 122.847656 425.878906 117.863281 C 426.429688 114.839844 426.667969 112.289063 426.625 110.191406 C 426.5625 107.523438 425.738281 105.75 424.152344 104.863281 C 422.40625 103.90625 419.738281 103.269531 416.152344 102.949219 C 412.554688 102.632813 407.496094 102.472656 400.964844 102.472656 "/>
<path style=" stroke:none;fill-rule:nonzero;fill:rgb(92.199707%,17.599487%,17.999268%);fill-opacity:1;" d="M 504.160156 103.242188 C 496.585938 103.242188 491.164063 103.386719 487.902344 103.667969 C 484.644531 103.941406 481.835938 104.546875 479.480469 105.476563 C 477.671875 106.210938 476.050781 107.273438 474.605469 108.648438 C 473.171875 110.03125 471.734375 112.34375 470.308594 115.574219 C 468.882813 118.816406 467.632813 120.527344 466.570313 126.003906 L 459.765625 162.105469 C 458.988281 167.445313 458.5 169.128906 458.3125 172.472656 C 458.519531 175.464844 459.011719 177.652344 459.820313 179.042969 C 460.625 180.433594 461.820313 181.542969 463.390625 182.367188 C 465.390625 183.402344 467.941406 184.066406 471.054688 184.359375 C 474.164063 184.652344 479.292969 184.804688 486.441406 184.804688 C 495.132813 184.804688 501.589844 184.535156 505.84375 184.023438 C 510.097656 183.5 513.320313 182.304688 515.519531 180.445313 C 519.574219 176.796875 521.914063 171.335938 524.308594 159.96875 L 530.597656 126.6875 C 531.511719 120.324219 531.925781 118.164063 531.855469 114.886719 C 531.75 110.339844 531.589844 107.964844 529.613281 106.566406 C 527.71875 105.128906 525.058594 104.21875 521.648438 103.828125 C 518.230469 103.4375 512.410156 103.242188 504.160156 103.242188 Z M 485.335938 201.167969 C 475.394531 201.167969 464.851563 200.535156 459.011719 199.277344 C 453.175781 198.023438 448.933594 195.816406 446.265625 192.652344 C 442.972656 188.949219 443.578125 183.660156 443.117188 176.421875 C 443.3125 170.628906 444.039063 164.824219 444.972656 159.367188 L 450.988281 127.757813 C 452.246094 120.980469 454.027344 114.847656 456.335938 109.355469 C 458.640625 103.871094 461.890625 99.300781 466.074219 95.652344 C 468.46875 93.339844 471.609375 91.515625 475.5 90.15625 C 479.382813 88.8125 483.8125 87.925781 488.773438 87.511719 C 493.726563 87.09375 499.820313 86.882813 507.039063 86.882813 C 512.496094 86.882813 517.40625 87.066406 521.753906 87.4375 C 526.113281 87.808594 529.933594 88.484375 533.21875 89.46875 C 536.507813 90.449219 539.296875 91.921875 541.582031 93.871094 C 545.730469 97.636719 547.898438 103.5625 548.085938 111.648438 C 548.164063 114.910156 547.667969 120.511719 546.605469 128.449219 L 540.46875 160.199219 C 537.144531 178.246094 533.175781 190.09375 523.253906 195.746094 C 519.222656 197.976563 514.375 199.4375 508.695313 200.128906 C 503.019531 200.820313 493.460938 201.167969 485.335938 201.167969 "/>
<path style=" stroke:none;fill-rule:nonzero;fill:rgb(92.199707%,17.599487%,17.999268%);fill-opacity:1;" d="M 607.816406 103.242188 C 600.238281 103.242188 594.820313 103.386719 591.558594 103.667969 C 588.300781 103.941406 585.488281 104.546875 583.132813 105.476563 C 581.324219 106.210938 579.703125 107.273438 578.261719 108.648438 C 576.824219 110.03125 575.390625 112.34375 573.964844 115.574219 C 572.539063 118.816406 571.289063 120.527344 570.226563 126.003906 L 563.421875 162.105469 C 562.640625 167.445313 562.152344 169.128906 561.96875 172.472656 C 562.171875 175.464844 562.667969 177.652344 563.476563 179.042969 C 564.28125 180.433594 565.476563 181.542969 567.046875 182.367188 C 569.046875 183.402344 571.597656 184.066406 574.707031 184.359375 C 577.816406 184.652344 582.949219 184.804688 590.097656 184.804688 C 598.789063 184.804688 605.246094 184.535156 609.5 184.023438 C 613.75 183.5 616.976563 182.304688 619.175781 180.445313 C 623.230469 176.796875 625.566406 171.335938 627.960938 159.96875 L 634.25 126.6875 C 635.164063 120.324219 635.578125 118.164063 635.511719 114.886719 C 635.402344 110.339844 635.242188 107.964844 633.269531 106.566406 C 631.371094 105.128906 628.714844 104.21875 625.304688 103.828125 C 621.886719 103.4375 616.0625 103.242188 607.816406 103.242188 Z M 588.988281 201.167969 C 579.050781 201.167969 568.507813 200.535156 562.667969 199.277344 C 556.828125 198.023438 552.585938 195.816406 549.921875 192.652344 C 546.625 188.949219 547.234375 183.660156 546.773438 176.421875 C 546.96875 170.628906 547.695313 164.824219 548.625 159.367188 L 554.644531 127.757813 C 555.898438 120.980469 557.679688 114.847656 559.992188 109.355469 C 562.296875 103.871094 565.546875 99.300781 569.730469 95.652344 C 572.121094 93.339844 575.265625 91.515625 579.15625 90.15625 C 583.035156 88.8125 587.464844 87.925781 592.425781 87.511719 C 597.378906 87.09375 603.472656 86.882813 610.695313 86.882813 C 616.152344 86.882813 621.0625 87.066406 625.410156 87.4375 C 629.769531 87.808594 633.585938 88.484375 636.875 89.46875 C 640.160156 90.449219 642.953125 91.921875 645.234375 93.871094 C 649.386719 97.636719 651.554688 103.5625 651.742188 111.648438 C 651.820313 114.910156 651.324219 120.511719 650.261719 128.449219 L 644.121094 160.199219 C 640.800781 178.246094 636.828125 190.09375 626.90625 195.746094 C 622.875 197.976563 618.03125 199.4375 612.351563 200.128906 C 606.671875 200.820313 597.113281 201.167969 588.988281 201.167969 "/>
<g clip-path="url(#clip3)" clip-rule="nonzero">
<path style=" stroke:none;fill-rule:nonzero;fill:rgb(92.199707%,17.599487%,17.999268%);fill-opacity:1;" d="M 711.46875 103.242188 C 703.894531 103.242188 698.472656 103.386719 695.214844 103.667969 C 691.953125 103.941406 689.144531 104.546875 686.789063 105.476563 C 684.980469 106.210938 683.359375 107.273438 681.914063 108.648438 C 680.480469 110.03125 679.046875 112.34375 677.617188 115.574219 C 676.191406 118.816406 674.941406 120.527344 673.878906 126.003906 L 667.074219 162.105469 C 666.296875 167.445313 665.808594 169.128906 665.621094 172.472656 C 665.828125 175.464844 666.320313 177.652344 667.128906 179.042969 C 667.933594 180.433594 669.132813 181.542969 670.699219 182.367188 C 672.699219 183.402344 675.253906 184.066406 678.363281 184.359375 C 681.472656 184.652344 686.605469 184.804688 693.75 184.804688 C 702.441406 184.804688 708.898438 184.535156 713.152344 184.023438 C 717.40625 183.5 720.628906 182.304688 722.828125 180.445313 C 726.886719 176.796875 729.222656 171.335938 731.613281 159.96875 L 737.90625 126.6875 C 738.820313 120.324219 739.234375 118.164063 739.164063 114.886719 C 739.058594 110.339844 738.898438 107.964844 736.925781 106.566406 C 735.027344 105.128906 732.367188 104.21875 728.957031 103.828125 C 725.539063 103.4375 719.71875 103.242188 711.46875 103.242188 Z M 692.644531 201.167969 C 682.703125 201.167969 672.160156 200.535156 666.320313 199.277344 C 660.484375 198.023438 656.242188 195.816406 653.574219 192.652344 C 650.277344 188.949219 650.890625 183.660156 650.429688 176.421875 C 650.625 170.628906 651.351563 164.824219 652.28125 159.367188 L 658.296875 127.757813 C 659.554688 120.980469 661.335938 114.847656 663.644531 109.355469 C 665.949219 103.871094 669.199219 99.300781 673.382813 95.652344 C 675.777344 93.339844 678.921875 91.515625 682.8125 90.15625 C 686.691406 88.8125 691.121094 87.925781 696.082031 87.511719 C 701.035156 87.09375 707.128906 86.882813 714.351563 86.882813 C 719.808594 86.882813 724.714844 87.066406 729.0625 87.4375 C 733.425781 87.808594 737.242188 88.484375 740.527344 89.46875 C 743.816406 90.449219 746.605469 91.921875 748.890625 93.871094 C 753.039063 97.636719 755.210938 103.5625 755.394531 111.648438 C 755.476563 114.910156 754.980469 120.511719 753.914063 128.449219 L 747.777344 160.199219 C 744.453125 178.246094 740.484375 190.09375 730.5625 195.746094 C 726.53125 197.976563 721.6875 199.4375 716.007813 200.128906 C 710.328125 200.820313 700.769531 201.167969 692.644531 201.167969 "/>
</g>
<path style=" stroke:none;fill-rule:nonzero;fill:rgb(92.199707%,17.599487%,17.999268%);fill-opacity:1;" d="M 253.050781 2.40625 L 253.050781 60.613281 L 272.984375 60.613281 L 272.984375 37.488281 L 311.257813 37.488281 L 311.257813 60.613281 L 331.191406 60.613281 L 331.191406 2.40625 L 311.257813 2.40625 L 311.257813 24.730469 L 272.984375 24.730469 L 272.984375 2.40625 L 253.050781 2.40625 "/>
<path style=" stroke:none;fill-rule:nonzero;fill:rgb(92.199707%,17.599487%,17.999268%);fill-opacity:1;" d="M 396.058594 47.855469 L 403.75 60.613281 L 426.871094 60.613281 L 391.789063 2.40625 L 368.664063 2.40625 L 333.582031 60.613281 L 348.730469 60.613281 L 356.421875 47.855469 Z M 376.238281 14.96875 L 388.847656 35.894531 L 363.625 35.894531 L 376.238281 14.96875 "/>
<path style=" stroke:none;fill-rule:nonzero;fill:rgb(92.199707%,17.599487%,17.999268%);fill-opacity:1;" d="M 532.121094 11.609375 C 532.121094 11.609375 536.789063 11.0625 541 10.785156 C 545.195313 10.523438 546.3125 10.574219 549.359375 10.574219 C 561.109375 10.574219 568.117188 14.3125 568 21.222656 C 567.902344 26.980469 562.542969 31.660156 550.796875 31.660156 C 547.261719 31.660156 541.9375 31.164063 538.347656 30.660156 C 534.761719 30.160156 532.121094 29.019531 532.121094 29.019531 Z M 512.984375 2.40625 L 512.984375 60.613281 L 532.121094 60.613281 L 532.121094 39.535156 C 538.4375 40.820313 545.632813 41.476563 553.25 41.476563 C 578.570313 41.476563 590.113281 32.367188 590.328125 21.144531 C 590.574219 7.679688 575.382813 0.015625 550.0625 0.015625 C 543.488281 0.015625 541.183594 0.289063 532.121094 0.8125 C 523.058594 1.335938 512.984375 2.40625 512.984375 2.40625 "/>
<path style=" stroke:none;fill-rule:nonzero;fill:rgb(92.199707%,17.599487%,17.999268%);fill-opacity:1;" d="M 429.265625 2.40625 L 429.265625 60.613281 L 448.398438 60.613281 L 448.398438 11.609375 C 448.398438 11.609375 453.070313 11.0625 457.277344 10.785156 C 461.476563 10.523438 462.59375 10.574219 465.640625 10.574219 C 477.390625 10.574219 485.191406 14.3125 485.078125 21.222656 C 484.980469 26.980469 478.824219 30.066406 467.074219 30.066406 C 463.539063 30.066406 459.1875 29.578125 455.601563 29.082031 C 455.40625 29.054688 451.589844 35.246094 451.589844 35.246094 L 480.292969 60.613281 L 508.996094 60.613281 L 483.648438 38.800781 C 499.519531 36.144531 507.394531 28.929688 507.402344 21.144531 C 507.421875 6.03125 492.386719 -0.285156 466.339844 0.015625 C 459.765625 0.09375 457.460938 0.289063 448.398438 0.8125 C 439.335938 1.335938 429.265625 2.40625 429.265625 2.40625 "/>
<path style=" stroke:none;fill-rule:nonzero;fill:rgb(92.199707%,17.599487%,17.999268%);fill-opacity:1;" d="M 240.292969 19.949219 C 240.292969 19.949219 246.972656 7.6875 246.671875 7.191406 C 246.371094 6.695313 233.1875 -0.285156 206.804688 0.015625 C 165.917969 0.476563 166.140625 17.554688 166.140625 17.554688 C 166.140625 17.554688 162.054688 33.429688 193.835938 36.691406 C 213.335938 38.6875 227.226563 41.945313 227.144531 46.683594 C 227.066406 51.433594 218.878906 51.148438 215.210938 50.851563 C 183.308594 48.261719 171.90625 39.324219 171.90625 39.324219 L 164.988281 53.65625 C 164.988281 53.65625 180.386719 63.296875 212.386719 63.003906 C 244.421875 62.714844 248.808594 55.109375 249.390625 44.878906 C 250.117188 32.136719 232.320313 27.125 232.320313 27.125 C 232.320313 27.125 222.558594 24.980469 212.402344 23.527344 C 200.734375 21.851563 188.582031 19.984375 190.097656 15.375 C 190.097656 15.21875 193.542969 8.617188 218.003906 13.207031 C 229.894531 15.429688 240.292969 19.949219 240.292969 19.949219 "/>
</g>
</svg>
