<?xml version="1.0" standalone="no"?><!DOCTYPE svg PUBLIC "-//W3C//DTD SVG 1.1//EN" "http://www.w3.org/Graphics/SVG/1.1/DTD/svg11.dtd">
<svg x="0.0000mm" y="0.0000mm" width="59.7960mm" height="26.4580mm" viewBox="0.0000 0.0000 59.7960 26.4580" version="1.1" xmlns="http://www.w3.org/2000/svg" shape-rendering="crispEdges">
<title>TBarCode - 11.14.0.16673</title>
<desc>BarCode licensed to MEM:TEC-IT Datenverarbeitung GmbH Internal License</desc>
<g fill="rgb(0%,0%,0%)">
</g>
<g fill="rgb(100%,100%,100%)">
<rect x="0.0000" y="0.0000" width="59.7960" height="26.4580" />
</g>
<g fill="rgb(0%,0%,0%)">
</g>
<g fill="rgb(0%,0%,0%)">
<rect x="5.8208" y="0.0000" width="0.5292" height="23.0371" />
<rect x="6.8792" y="0.0000" width="0.5292" height="23.0371" />
<rect x="7.8968" y="0.0000" width="1.6282" height="20.1864" />
<rect x="10.0135" y="0.0000" width="1.0990" height="20.1864" />
<rect x="12.7407" y="0.0000" width="0.4885" height="20.1864" />
<rect x="14.3282" y="0.0000" width="0.4885" height="20.1864" />
<rect x="15.8343" y="0.0000" width="1.0990" height="20.1864" />
<rect x="17.4218" y="0.0000" width="1.0990" height="20.1864" />
<rect x="20.1084" y="0.0000" width="0.5292" height="20.1864" />
<rect x="21.1667" y="0.0000" width="1.0583" height="20.1864" />
<rect x="22.7542" y="0.0000" width="1.5875" height="20.1864" />
<rect x="25.4001" y="0.0000" width="0.5292" height="20.1864" />
<rect x="26.4584" y="0.0000" width="0.5292" height="20.1864" />
<rect x="27.5167" y="0.0000" width="2.1167" height="20.1864" />
<rect x="30.1626" y="0.0000" width="0.5292" height="23.0371" />
<rect x="31.2209" y="0.0000" width="0.5292" height="23.0371" />
<rect x="32.2793" y="0.0000" width="0.4885" height="20.1864" />
<rect x="33.8668" y="0.0000" width="0.4885" height="20.1864" />
<rect x="35.9834" y="0.0000" width="1.5875" height="20.1864" />
<rect x="38.6293" y="0.0000" width="0.5292" height="20.1864" />
<rect x="39.6876" y="0.0000" width="0.4885" height="20.1864" />
<rect x="41.2751" y="0.0000" width="0.4885" height="20.1864" />
<rect x="43.3918" y="0.0000" width="1.0990" height="20.1864" />
<rect x="44.9793" y="0.0000" width="1.0990" height="20.1864" />
<rect x="47.0960" y="0.0000" width="0.5292" height="20.1864" />
<rect x="48.1543" y="0.0000" width="1.5875" height="20.1864" />
<rect x="50.8001" y="0.0000" width="0.5292" height="20.1864" />
<rect x="51.8585" y="0.0000" width="1.5875" height="20.1864" />
<rect x="54.5043" y="0.0000" width="0.5292" height="23.0371" />
<rect x="55.5627" y="0.0000" width="0.5292" height="23.0371" />
</g>
<g fill="rgb(0%,0%,0%)">
<text x="2.9104" y="25.2821" transform="rotate(360 2.9104,25.2821)" text-anchor="middle" font-family="Arial" font-size="5.6444" >9</text>
<text x="18.7855" y="25.2821" transform="rotate(360 18.7855,25.2821)" text-anchor="middle" font-family="Arial" font-size="5.6444" >782956</text>
<text x="43.1272" y="25.2821" transform="rotate(360 43.1272,25.2821)" text-anchor="middle" font-family="Arial" font-size="5.6444" >808244</text>
</g>
</svg>
